<svg height="425" viewBox="0 0 652 425" width="652" xmlns="http://www.w3.org/2000/svg" xmlns:xlink="http://www.w3.org/1999/xlink"><mask id="a" fill="#fff"><path d="m.04042682.34034955h124.53325518v71.45127315h-124.53325518z" fill="#fff" fill-rule="evenodd"/></mask><g fill="none" fill-rule="evenodd"><g transform="translate(111 164)"><path d="m138.794838 104.983254c8.953627 5.18721 9.001204 13.674609.105725 18.861819l-49.4425254 28.831341c-8.8937163 5.185884-23.4966091 5.185884-32.4502366-.001326l-49.76630976-28.830457c-8.95142483-5.185884-8.99900131-13.673724-.10572549-18.859609l49.44296605-28.8313401c8.8954784-5.1872102 23.4983712-5.1872102 32.449796-.0013261z" fill="#f8f8fa"/><path d="m138.900651 123.845029-49.4429658 28.831341c-8.8932758 5.185884-23.4961686 5.185884-32.449796-.001327l-49.76630985-28.830456c-4.50478693-2.609739-6.75453726-6.055797-6.74484575-9.496109l-.18942484 26.223812c-.0096915 3.440753 2.24005882 6.886369 6.74484575 9.496109l49.76630979 28.830898c8.9536275 5.186768 23.5565203 5.186768 32.4497961.000884l49.4429656-28.83134c4.418885-2.576587 6.631191-5.967834 6.640442-9.364384l.189425-26.224254c-.009251 3.396551-2.221557 6.787797-6.640442 9.364826" fill="#dedde8"/><path d="m329.981766 32.9325297c8.953627 5.1872102 9.001204 13.6746087.105725 18.8618189l-49.442525 28.8313405c-8.893717 5.1858841-23.496609 5.1858841-32.450237-.0013261l-49.76631-28.8304565c-8.951424-5.185884-8.999001-13.6737246-.105725-18.8596087l49.442966-28.83134055c8.895478-5.18721015 23.498371-5.18721015 32.449796-.00132609z" fill="#f8f8fa"/><path d="m330.087579 51.7943043-49.442966 28.8313406c-8.893275 5.1858841-23.496168 5.1858841-32.449796-.0013261l-49.76631-28.8304565c-4.504786-2.6097391-6.754537-6.0557971-6.744845-9.4961087l-.189425 26.2238116c-.009692 3.4407536 2.240059 6.8863696 6.744846 9.4961087l49.766309 28.8308981c8.953628 5.186769 23.556521 5.186769 32.449796.000885l49.442967-28.8313411c4.418884-2.5765869 6.63119-5.9678333 6.640441-9.364384l.189425-26.2242536c-.009251 3.3965507-2.221557 6.7877971-6.640442 9.364826" fill="#dedde8"/></g><path d="m616 325.507733-94-164.507733v219z" fill="#dedde8"/><path d="m428 325.507733 94-164.507733v219z" fill="#f8f8fa"/><path d="m447 336.640724 51-88.640724v118z" fill="#c7c7d1"/><path d="m514 354.345287-16.043403-106.088687v117.685429z" fill="#8082ff"/><path d="m447.037326 336.731626 50.962674-88.731626-57 71.731251z" fill="#8082ff"/><path d="m256.676012 193.626543c-6.58312 2.761115-13.852753 3.599711-20.765909.627186-3.135134-1.348626-5.603143-3.079553-7.480257-5.025414-1.895622.680919-4.042406 1.144702-6.450929 1.327484-8.234628.625865-17.549698-3.815967-27.687438-13.203052-7.473207-6.920624-12.652897-14.124451-12.704011-14.196242l1.486269-1.066745c.200931.279679 20.279887 28.040135 38.760651 26.636014 1.951142-.147988 3.71325-.495495 5.291612-.999357-3.635257-4.679229-4.279468-10.260036-2.876479-14.711998 1.571752-4.985333 5.403974-7.733675 9.527457-6.8365 3.655526.793231 5.988259 4.706976 5.674526 9.520538-.317259 4.862011-3.285832 9.959656-9.181998 12.766136 1.647102 1.574571 3.74806 2.981775 6.357954 4.103134 6.879668 2.958872 15.237234 2.018533 23.5124-2.647482 6.828555-3.845916 13.20766-10.109846 16.2507-15.955357.255129-.49109.487345-.973812.697529-1.446844-.434909-.188068-.830601-.381861-1.18928-.574333-4.015967-2.143618-6.848824-6.009796-6.887159-9.401179-.022032-1.869665.804603-3.3676 2.327445-4.215005 2.356969-1.320437 4.97215-.999357 6.829436.813932 2.07452 2.028664 3.417582 6.320305 1.321471 12.29883 3.879811 1.145142 9.940775 1.246884 17.769136-3.945016 19.454572-12.89034 20.085565-60.488626 20.08909-60.968265l1.829525.021582c-.00044.122002-.133072 12.345957-2.733272 26.036135-3.517166 18.522238-9.631007 30.783631-18.172759 36.443277-8.511789 5.636744-15.190967 5.435463-19.457657 4.124715-.238826.542181-.504971 1.098897-.799757 1.666183-3.327692 6.392537-11.579064 14.712878-21.338296 18.807643m16.050209-33.935416c-.165239.069149-.329596.15019-.493954.24048-1.168129.650529-1.400786 1.771888-1.391532 2.596831.025997 2.248003 1.887689 5.645993 5.913351 7.796658.305361.162522.641127.327247 1.007296.487126 1.691607-4.879628.917848-8.611911-.866292-10.358694-1.14742-1.120037-2.673787-1.389586-4.168869-.762401m-42.43953 8.54981c-2.056013.86238-3.562993 3.020093-4.291366 5.3324-1.282254 4.066136-.605876 9.206945 2.94566 13.468637 5.595211-2.446641 8.397663-7.068172 8.684518-11.469923.252485-3.879831-1.48671-7.005189-4.228795-7.601103-1.135963-.246206-2.179392-.120681-3.110017.269989" fill="#3a3953"/><path d="m324.654389 118.028467c1.379194.957515 2.781743-4.112823 8.271641-8.873533 4.375968-3.795266 10.343518 8.297878 10.254509 8.396096-6.152617 6.72551-20.788822 10.936992-25.018939 9.456675-2.055132-.719238-2.637214-1.694371-3.118389-2.811325-.34546-.8016-.567982-1.842798-.716917-2.765959-1.233784-7.661003-.722204-15.710474 1.244359-23.2010267.482057-1.8388345.659634-2.8130865 2.526614-3.0513642 1.603919-.2048043 5.218026.8231812 6.253964 2.2096845.97513 1.3032602.785215 3.2196124.612045 4.7342834-.703698 6.147212-2.213321 14.583829-.308887 15.906469" fill="#5658ff"/><path d="m322.440584 99.0546456c-1.484948.2928922-3.091511-.4968157-4.013324-1.7511871-1.100712-1.5001366-.99584-3.4680199-.133072-5.0496377.534933-.9799777 1.23819-2.0771123 2.42747-2.3312458 1.149182-.2457652 2.840788.3717308 3.885098.813932.976452.4131322 1.556331 2.144059 1.347028 3.1751277-.148495.7333316-1.503454 4.1322024-2.463162 4.728117-.334884.2087682-.688716.3435427-1.050038.4148939" fill="#fcd0a4"/><path d="m330.433566 204.453072c-3.06331 1.739736-2.415132 3.928719-1.344825 4.924553.63584.590629 1.969208 1.65385 3.793446.920078l9.055094-5.325353c1.071189-.630269 1.071189-5.239467 0-5.868855l-.203133-.119359c-.759659-.447486-1.698216-.437356-2.448621.024224 0 0-6.594136 4.162593-8.851961 5.444712" fill="#8082ff"/><path d="m328.293127 206.385103c-.300955 1.041199.169205 2.003559.784775 2.571286.630111.58138 1.953344 1.626542 3.764363.905103l8.984593-5.238587c.193439-.112752.350306-.357196.473244-.682681l-9.160847 5.341209c-1.889453.754032-3.269969-.337377-3.92784-.944302-.495276-.455855-.900222-1.157034-.918288-1.952028" fill="#1d1b3a"/><path d="m345.519838 210.750739c-3.091951 1.702298-2.437164 3.844155-1.357163 4.818407.642009.578297 1.987274 1.618174 3.828256.900258l9.137053-5.210398c1.080883-.617056 1.080883-5.125834 0-5.742449l-.204896-.116716c-.766709-.436916-1.713638-.428108-2.471094.023783 0 0-6.653621 4.072303-8.932156 5.327115" fill="#8082ff"/><path d="m343.367854 212.74267c-.306243 1.105503.172289 2.126882.798875 2.729403.642009.617056 1.989037 1.726523 3.833103.960598l9.148069-5.560547c.196965-.119359.356916-.379218.482057-.724523l-9.327849 5.669336c-1.923381.800279-3.329454-.358077-3.999223-1.00244-.504529-.484483-.916966-1.227945-.935032-2.071827" fill="#1d1b3a"/><path d="m346.276192 159.455977c-.23486 0 3.605734 45.740953 3.632613 46.117088.467516 3.884235 2.53146 4.093004 4.245539 4.093004 0 0 3.42331-.208769 3.890826-4.093004.026879-.376135 3.867473-46.117088 3.632613-46.117088h-7.523439-.354713z" fill="#193e68"/><path d="m331.294527 153.289825c-.234859 0 3.605734 45.740953 3.632613 46.117089.467516 3.884235 2.531461 4.093003 4.24554 4.093003 0 0 3.42331-.208768 3.890826-4.093003.026879-.376136 3.867473-46.117089 3.632613-46.117089h-7.523439-.354713z" fill="#0f2948"/><path d="m349.387443 208.816197c-.47677-.194674-.681666.583582-.211947.775173.67065.274394 1.241275.713072 1.711876 1.263621.334884.393312.897137-.178378.564456-.568607-.565338-.661981-1.263307-1.142941-2.064385-1.470187" fill="#3a3953"/><path d="m347.624894 210.137515c-.476769-.194674-.681666.583582-.211946.775173.670649.274394 1.241274.713072 1.711875 1.263621.334884.393312.897137-.178378.564456-.568607-.565337-.661981-1.263307-1.14294-2.064385-1.470187" fill="#3a3953"/><path d="m349.560966 207.353365c-.244113.613973-.427859 1.413811.351188 1.64372.5953.176176 1.109965.513112 1.587615.88176.3318.255895.768912.352352 1.087052-.011892.093415-.107908.163917-.231671.254248-.343102.369254-.453653 1.103796-.924042.87114-1.590427-.215031-.614853-1.03726-1.1632-1.621105-1.43363-.548152-.254134-1.482303-.596355-1.99168-.114955-.15951.151071-.261738.344864-.351187.539538-.055961.120681-.12382.269109-.187271.428988" fill="#5658ff"/><path d="m333.965141 202.650089c-.476769-.194674-.681666.582702-.211946.775174.670649.274393 1.241275.71219 1.711875 1.26362.334884.393313.897137-.178378.564456-.568607-.565337-.66198-1.263307-1.14294-2.064385-1.470187" fill="#3a3953"/><path d="m332.643229 203.530924c-.476769-.194674-.681665.583582-.211946.775173.67065.274394 1.241275.713072 1.711875 1.263621.334885.393312.897138-.178378.564457-.568607-.565338-.661981-1.263307-1.14294-2.064386-1.470187" fill="#3a3953"/><path d="m334.1384 200.746642c-.244113.613973-.426978 1.413811.351187 1.64372.595742.176176 1.110406.513552 1.588938.88176.330478.255895.768912.352351 1.08573-.011892.093856-.107908.163917-.231671.254248-.342221.369694-.454534 1.104237-.924923.87114-1.591308-.213709-.613973-1.03682-1.1632-1.621105-1.43363-.548152-.254134-1.481863-.596355-1.99168-.114515-.15951.150631-.261738.344424-.351188.539098-.055961.120681-.123819.268668-.18727.428988" fill="#5658ff"/><path d="m359.514167 160.183318c-2.169257.742141-1.983749 4.090802-1.425902 5.808075.162154.496815.800638.419298 1.081764.114514.025116-.026867.037895-.056376.061689-.084124.298312 2.199995.851311 4.898567 2.853126 4.38061 1.159317-.299939 1.651949-1.966561 1.906197-2.946539.48426-1.870546.367491-3.80892.169204-5.709857-.011456-.107467-.045385-.194233-.091652-.265585-.178899-1.848524-3.165538-1.771887-4.554426-1.297094" fill="#fcd0a4"/><path d="m330.177203 116.434737c-.79579 15.254178-1.747126 34.562161-1.495522 35.160277.393048.935494 1.153588 1.299297 2.033981 1.495733.015863.044924.015863.088968.040098.134774 3.912858 7.361945 9.887017 13.289819 23.96846 11.021996.723526-.116276 1.473932-.11055 2.176307.100861.904628.273072 2.459196.564203 4.235405.269549 2.321717-.384504 3.998342-2.442677 4.055625-4.80123.189914-7.849511-.909035-26.89279-1.456747-35.213571-.33224-5.036865-3.157606-9.569867-7.513305-12.100632-1.133759-.659338-1.958191-1.126204-1.99873-1.115193-.773759-.447927-3.677117-2.123799-7.176217-4.143654-7.283292-4.204434-16.43048.775614-16.869355 9.19109" fill="#5658ff"/><path d="m332.165447 123.339946c-.140564.615294-1.453222 27.46448-3.965735 28.292946.403183.935934 1.183992 1.300618 2.089061 1.496613.016303.045806.016303.08985.040979.135656.557406 1.020938 1.835695-29.925215 1.835695-29.925215" fill="#8082ff"/><path d="m354.805826 125.995707c-1.20338-.656254-.244994 23.391737-.274957 37.764156.768471-.115836 1.565583-.11011 2.31026.10042-1.948057-3.803635-.556084-21.072383-2.035303-37.864576" fill="#8082ff"/><path d="m357.722404 95.5594506-32.039171 19.2599744c-.703257.422822-1.59731-.085445-1.59731-.907745l-.292583-31.0919391z" fill="#1d1b3a"/><path d="m313.658684 94.7652062c.921373.1981978 1.974055-.2017212 2.942576-1.246003 1.947616-2.1000151 2.819196-6.018164 1.944091-8.7519714-.440197-1.3750518-1.238631-2.188103-2.170579-2.3880625l11.271059 4.1674377c.924897.4386776 1.730823 1.0130106 2.171019 2.3880624.393489 1.9995949-.013219 3.9058166-1.202058 5.4107981-.968961 1.0451627-1.877996 1.2178149-2.943016 1.2468839z" fill="#d8584b"/><path d="m311.363449 92.3038987c-.896696-2.700334-.003525-6.5709154 1.994324-8.6471468 1.996527-2.0744696 4.342921-1.5701665 5.239617 1.1301675.897578 2.700334.003966 6.5709155-1.993002 8.6453851-1.997849 2.0762313-4.344242 1.5719282-5.240939-1.1284058" fill="#fe7364"/><path d="m327.759075 91.3473965c0 8.8277265 4.160496 15.6122555 11.431891 17.9981155v1.153511c0 3.443796 2.777777 6.23442 6.20329 6.23442v-6.455521c10.955122-.07091 19.81898-10.499194 19.81898-21.5233923 0-11.0616356-8.923344-20.0289819-19.930461-20.0289819-11.006676 0-17.5237 11.5602131-17.5237 22.6218487" fill="#fcd0a4"/><path d="m329.625217 73.0559481c-3.477068 2.0106058-5.618565 5.7257122-5.618565 9.7464835v.0008809l15.066708 8.0833843c3.812834 2.0445198 6.178615 6.0379838 6.143364 10.3692652l-.147614 18.51387c-.007931 1.009928 1.081764 1.646363 1.955107 1.141179l11.60374-6.710095c4.620081-2.671705 7.466597-7.60859 7.466597-12.952882v-13.836404c0-6.8730569-3.661254-13.2233122-9.604128-16.6600609-7.078836-4.0943247-15.800368-4.0943247-22.879645 0z" fill="#1d1b3a"/><path d="m336.622448 104.085917c-.215031-.123763-.391727-.023784-.392608.223303-.000881.380099-.135716.643041-.355154.767686-.219437.124644-.51907.105265-.847345-.083243-.331359-.191592-.627027-.515755-.844261-.892331-.217675-.377016-.351188-.793231-.350306-1.17333.000881-.247087-.174933-.550549-.389964-.674753-.218556-.126406-.395252-.025105-.396133.221541 0 1.255692.885681 2.786219 1.978461 3.420012 1.092339.625864 1.983749.118478 1.987274-1.134572.000881-.246646-.171408-.548788-.389964-.674313" fill="#e94941"/><path d="m171.65035 191.361583c-1.379635.957516-2.781742-4.112823-8.271641-8.873532-4.375968-3.795267-10.343517 8.297878-10.254509 8.396096 6.152617 6.72551 20.788822 10.936991 25.018939 9.456674 2.055132-.719237 2.637214-1.69437 3.11839-2.811324.345459-.8016.567981-1.842799.716917-2.76596 1.233784-7.661003.722204-15.710473-1.24436-23.201026-.482057-1.838835-.659634-2.813087-2.526613-3.051805-1.60392-.204364-5.218026.823622-6.253964 2.210125-.97513 1.30326-.785216 3.219612-.612045 4.734283.703697 6.147213 2.21332 14.58383.308886 15.906469" fill="#43bad3"/><path d="m174.304749 172.387762c1.484947.292892 3.09151-.496816 4.013323-1.751187 1.100712-1.500137.995841-3.46802.133073-5.049638-.534934-.979977-1.238191-2.077112-2.427911-2.331245-1.148741-.245766-2.840347.37173-3.884658.813932-.97557.413132-1.556771 2.144059-1.347027 3.175127.148494.733332 1.503454 4.132203 2.463161 4.728117.334885.208769.688716.343543 1.050039.414894" fill="#fcd0a4"/><path d="m166.311811 277.786189c3.063309 1.739735 2.415132 3.928719 1.344824 4.924553-.635839.590629-1.969207 1.653849-3.793445.920077l-9.055095-5.325352c-1.071189-.630269-1.071189-5.239468 0-5.868855l.203134-.119359c.759659-.447487 1.698216-.437357 2.448621.024224 0 0 6.594136 4.162592 8.851961 5.444712" fill="#43bad3"/><path d="m168.45225 279.71822c.300955 1.041199-.169205 2.003559-.784775 2.571285-.630111.58138-1.953345 1.626543-3.764364.905103l-8.984592-5.238586c-.19344-.112752-.350307-.357196-.473244-.682681l9.160847 5.341209c1.889452.754032 3.269969-.337377 3.92784-.944303.495276-.455854.900222-1.157034.918288-1.952027" fill="#1d1b3a"/><path d="m151.115247 284.083855c3.091951 1.702299 2.437165 3.843715 1.357163 4.818407-.642009.578297-1.987274 1.618175-3.828256.900259l-9.137053-5.210399c-1.080883-.617055-1.080883-5.125833 0-5.742448l.204896-.116717c.766709-.436916 1.713638-.428107 2.471094.023784 0 0 6.654062 4.072303 8.932156 5.327114" fill="#43bad3"/><path d="m153.271373 286.075787c.30448 1.105503-.170967 2.126882-.794028 2.729403-.637602.617055-1.976258 1.726522-3.808427.960598l-9.089024-5.560547c-.196083-.11936-.354713-.379219-.478972-.724523l9.267922 5.669776c1.911043.799838 3.308304-.358518 3.973666-1.00288.501004-.484484.910797-1.227945.928863-2.071827" fill="#1d1b3a"/><path d="m150.469185 232.789093c.23486 0-3.605734 45.740954-3.632613 46.117089-.467516 3.884235-2.531461 4.093003-4.245539 4.093003 0 0-3.423311-.208768-3.890827-4.093003-.026879-.376135-3.867472-46.117089-3.632613-46.117089h7.52344.354713z" fill="#193e68"/><path d="m165.010212 226.622942c.23486 0-3.605734 45.740953-3.632613 46.117088-.467516 3.884235-2.53146 4.093004-4.245539 4.093004 0 0-3.42331-.208769-3.890826-4.093004-.026879-.376135-3.867473-46.117088-3.632613-46.117088h7.523439.354713z" fill="#0f2948"/><path d="m147.798571 282.149357c.47677-.194674.681666.583583.211947.775174-.67065.274394-1.241275.713071-1.711876 1.26362-.334884.393313-.897137-.178377-.564456-.568607.565337-.66198 1.264188-1.14294 2.064385-1.470187" fill="#3a3953"/><path d="m149.120483 283.470676c.476769-.194675.681665.583582.211946.775173-.67065.274394-1.241275.713071-1.711875 1.263621-.334885.393312-.897138-.178378-.564457-.568608.565338-.66198 1.264189-1.14294 2.064386-1.470186" fill="#3a3953"/><path d="m147.184411 280.686482c.244113.613973.427859 1.413811-.351188 1.64372-.595301.176176-1.109965.513112-1.587616.88176-.331799.255895-.768912.352351-1.087052-.011892-.093415-.107908-.163917-.231671-.254247-.343103-.369254-.453652-1.103796-.924041-.87114-1.590426.215031-.614854 1.03726-1.163201 1.621104-1.433631.548153-.254133 1.481863-.596354 1.99168-.114954.159511.151071.261739.344864.351188.539538.055961.12068.123819.269109.187271.428988" fill="#81d1e4"/><path d="m162.780236 275.983206c.476769-.194674.681665.582701.211946.775173-.67065.274394-1.241275.712191-1.711875 1.263621-.334885.393312-.897138-.178378-.564457-.568607.565338-.661981 1.264189-1.142941 2.064386-1.470187" fill="#3a3953"/><path d="m164.542784 276.864085c.47677-.194675.681666.583582.211947.775173-.67065.274394-1.241275.713071-1.711876 1.263621-.334884.393312-.897137-.178378-.564456-.568608.565338-.66198 1.264188-1.14294 2.064385-1.470186" fill="#3a3953"/><path d="m162.16634 274.079759c.244113.613972.426977 1.41381-.351188 1.64372-.595741.176175-1.109965.513552-1.588497.881759-.330919.255896-.769353.352352-1.086171-.011891-.093415-.107908-.163917-.231672-.254247-.342222-.369695-.454533-1.104237-.924923-.87114-1.591307.213709-.613973 1.036819-1.163201 1.621104-1.433631.548153-.254133 1.481863-.596355 1.99168-.114514.159511.15063.261739.344424.351188.539098.055961.12068.123819.268668.187271.428988" fill="#81d1e4"/><path d="m136.790573 233.516435c2.169257.74214 1.983748 4.090801 1.425902 5.808074-.162155.496816-.800638.419299-1.081765.114515-.025116-.026867-.037894-.056377-.061689-.084124-.298311 2.199995-.851311 4.898567-2.853126 4.38061-1.159316-.299939-1.651948-1.966121-1.906196-2.94654-.48426-1.870546-.367492-3.80892-.169205-5.709856.011457-.107467.045386-.194234.091653-.265585.178898-1.848524 3.165537-1.771888 4.554426-1.297094" fill="#fcd0a4"/><path d="m166.127536 189.767853c.795791 15.254179 1.747127 34.562161 1.495523 35.160278-.393049.935493-1.153588 1.299296-2.034422 1.495732-.015423.044925-.015423.088969-.039658.134775-3.912858 7.361944-9.887017 13.289818-23.96846 11.021996-.723526-.116276-1.473931-.110551-2.176307.10086-.904628.273073-2.459196.564203-4.235404.269549-2.321718-.384503-3.998342-2.442677-4.055625-4.80123-.189915-7.849511.909034-26.892789 1.456746-35.21357.332241-5.036866 3.157607-9.569868 7.513305-12.100633 1.13376-.659337 1.958192-1.126203 1.99873-1.115192.773759-.447927 3.677118-2.123799 7.176218-4.143654 7.283292-4.204435 16.430479.775614 16.869354 9.191089" fill="#43bad3"/><path d="m163.698612 196.673062c.140563.615294 1.453221 27.46448 3.965734 28.292947-.403183.935933-1.183992 1.300617-2.089061 1.496613-.016303.045805-.016303.089849-.040979.135655-.557406 1.020939-1.835694-29.925215-1.835694-29.925215" fill="#81d1e4"/><path d="m141.498913 199.328868c1.203381-.656255.244995 23.391737.274958 37.764155-.768471-.115835-1.565584-.11011-2.310261.10042 1.948057-3.803634.556084-21.072382 2.035303-37.864575" fill="#81d1e4"/><path d="m178.961932 155.271758c-.909035.262943-1.640933 1.101099-1.982868 2.454129-.686072 2.721915.468397 6.501326 2.580812 8.442342 1.063698.976454 2.166173 1.299737 3.086223 1.034592l-11.980485 1.710667c-1.031531.057257-2.023406-.058578-3.086222-1.035033-1.328962-1.53405-1.905316-3.365397-1.595988-5.218766.341493-1.353911 1.05797-1.930446 1.983308-2.455009z" fill="#d8584b"/><path d="m182.398064 156.416196c2.199221 1.976692 3.400398 5.825692 2.685243 8.60002-.713832 2.771245-3.074325 3.420012-5.272664 1.44332-2.199661-1.975811-3.400838-5.825692-2.687006-8.597818.715595-2.773447 3.075207-3.422214 5.274427-1.445522" fill="#fe7364"/><path d="m142.990074 145.048059c12.577107-3.60852 25.435341 5.625292 25.554754 18.768884.000881.087648.000881.174855.000881.262502 0 9.036496-4.26008 15.981785-11.703324 18.424461v1.180819c0 3.485637-2.783505 6.307532-6.235897 6.370075v.01013h-.095178c-.00661 0-.012338.001321-.018947.001321v-.001321h-1.275645c-2.543799 0-4.605981-2.073149-4.605981-4.629899v-3.023617c-8.292351-2.933767-14.330843-11.659752-14.400464-20.827058.243232-1.576332.557406-3.116109.971165-4.593342 2.342868-4.807837 5.650731-8.964264 10.51184-11.540834.04142-.017618.084603-.035235.125582-.052412.389523-.120681.780368-.237397 1.171214-.349709" fill="#fcd0a4"/><path d="m157.435703 178.971054c.191237-.109669.348103-.020701.348985.198198.000881.337817.120734.57169.315496.68224.195202.110551.461347.094254.75349-.073553.294345-.17001.556965-.458497.750405-.792791.193439-.335174.311971-.705584.31109-1.043841-.000882-.218899.155544-.489329.346781-.598998.194321-.112312.351188-.022903.352069.196436 0 1.116073-.787419 2.477031-1.758583 3.040353-.971164.555835-1.762989.105706-1.766514-1.008606-.000882-.219339.15246-.487126.346781-.599438" fill="#e94941"/><path d="m173.680234 152.076238c.443721 1.131049.376304 2.853607-.374542 3.528801-.037454.599438-.29038 1.196233-.777284 1.657373-.873783.826705-2.298804 1.163201-3.377043.634233-.264823.620139-.680785 1.173771-1.280051 1.571047-.826636.547907-2.194814.874713-3.124999.431191-.209744.352351-.479414.685764-.86409.943421-1.557652 1.046484-3.405244 1.535812-5.16559 1.000678-.242791.388908-.605876.709108-1.003771.929768-1.109965.614413-2.375916.595033-3.473543.099979-.136598.236516-.308887.456296-.541984.634233-.896256.684003-2.022965.602081-2.915256.056376-.170526.305225-.396132.587106-.69885.824503-.480295.377016-1.139488.635114-1.757702.513993-.220759-.043163-.405386-.152833-.577675-.284524.011456.599438-.103109 1.207244-.378508 1.750306-.441959.87207-1.313539 1.44332-2.209795 1.518195.410233.60164.599266 1.36316.467516 2.127322-.10399.604283-.464872 1.302379-.963674 1.746342.029964.021582.066096.032152.094297.057698.262179.239158.43579.535574.520833.880879.160833.655814-.010135 1.419976-.343697 1.998714-.333562.576094-.887003.963681-1.486269 1.109467.139682.807325.06962 1.630066-.401861 2.398633-.934592 1.520396-2.62091 1.870546-4.253912 1.419536-.958386-.264704-1.566906-1.040759-1.748448-1.936172-.674616.0599-1.370382-.137417-1.856405-.644363-.016744-.016296-.033488-.033914-.050232-.051091-.445925-.464223-.647296-1.008165-.65655-1.556513-1.170773.092933-2.29616-.391991-2.639857-1.637994-.167442-.607806-.030845-1.34334.323868-1.92472.003085-.01057.004847-.022903.009253-.033914-.095177.014975-.188152.033914-.285532.039199-1.269476.056377-2.350359-1.116954-2.350359-2.341375v-.2603c0-.476115.144969-.904663.385998-1.263621-1.962157-.424583-2.265316-3.074707-.865411-4.146737-.774641-.729367-.944727-1.980656-.461788-2.91747-.458704-.44044-.755693-1.051329-.755693-1.686443v-.129929c0-.984383.605876-1.777173 1.445731-2.136132-.248079-.370409-.401421-.799838-.401421-1.245122v-.13037c0-.903781.527002-1.617293 1.261104-2.008844-.009254-.348828.049792-.697216.175373-1.019617-.922694-1.356554-.337968-3.707179 1.795156-3.730962.087246-.144464.189034-.275275.278924-.417096-.060808-.201722-.106635-.409609-.116769-.626746-.051555-1.153511.92666-2.133488 2.031778-2.298653-.08989-.70206.08989-1.434952.615129-1.958194l.130429-.129929c.548593-.546585 1.32059-.718357 2.049844-.599438.010576-.009249.021591-.017618.032607-.026867.016304-.579618.228691-1.155713.658753-1.584261.044504-.044043.087687-.087207.130869-.13037.41508-.413572.959708-.605163 1.515352-.626745.310649-.924482 1.250087-1.619936 2.235352-1.619936h.260857c.222081 0 .429181.041401.627468.10042.157307-.570369.508495-1.081279 1.052682-1.35303.086365-.044044.174052-.087207.260416-.131251.611605-.306105 1.280933-.327687 1.883284-.132572.416843-.713952 1.216599-1.214732 2.050725-1.214732h.261298c.368813 0 .69841.105265 1.000247.255455.052435-.026426.104871-.052412.156426-.078839.84382-.421941 1.830407-.383182 2.560102.130811.341934-.188949.722204-.307427 1.11349-.307427h.130869c.54639 0 1.020075.201721 1.406074.510029.365728-.309188.849107-.510029 1.465559-.510029.984824 0 1.636526.499018 1.978461 1.167605.230453-.074875.479413-.126846.763183-.126846.927101 0 1.553687.448367 1.911485 1.057054.231334-.078839.467075-.135215.701494-.146226.862327-.037878 1.534739.435595 1.938363 1.098897.016744.017177.025998.038758.041861.057257.202252-.061662.410233-.106146.628348-.116276 1.069427-.048008 1.996527.780018 2.264435 1.773649.615129.139179 1.173417.50122 1.461153 1.076874l.130869.259419c.120734.239599.191236.49109.234419.743022.571947.262942.999806.758436 1.221887 1.353029.013219 0 .026879-.003523.039217-.003523h.131309c1.317506 0 2.293076 1.072029 2.349478 2.340935.002644.048889-.011457.093373-.013219.141822.909475.323282 1.534739 1.195352 1.579684 2.199554.018066.395515-.104872.76196-.293024 1.093611.540662.501661.764065 1.259216.701495 1.993869" fill="#634e42"/><path d="m4.00376172 30.3766652c-5.25812362 3.0346275-5.28984949 8.0019031-.06212984 11.0382923l48.37491352 28.1000339c5.2277196 3.0368297 13.8073664 3.0346275 19.06549 0l49.2266656-27.7586934c5.262089-3.0368296 5.29029-8.001903.062129-11.0387327l-48.3744724-28.09959349c-5.2281603-3.03682968-13.8034007-3.03682968-19.06549 0z" fill="#4bae4f" mask="url(#a)" transform="translate(527.442719 352.351522)"/><path d="m587.932203 396.581152h3.461646c2.616504 0 4.738172-2.120275 4.738172-4.736045v-68.391871c0-2.615769-2.121668-4.736485-4.738172-4.736485h-3.461646c-2.616944 0-4.738171 2.120716-4.738171 4.736485v68.391871c0 2.61577 2.121227 4.736045 4.738171 4.736045" fill="#3e5b66"/><path d="m568.886542 273.414872v-6.024771c0-11.573867 9.4737-21.043754 21.053204-21.043754 11.579946 0 21.054527 9.470328 21.054527 21.045075v6.529514c0 2.372647.964995 4.628138 2.628841 6.320306 5.996191 6.095681 9.79228 14.50411 9.79228 23.791215 0 18.739375-15.344309 33.906787-34.138807 33.702864-18.356064-.199079-33.3179-15.264309-33.365929-33.613014-.025116-9.512611 3.922993-18.109547 10.209123-24.252356 1.744923-1.705381 2.766761-4.015486 2.766761-6.455079" fill="#00ad8c"/><path d="m43.2045208 184.638716c-3.6414258 2.093849-6.584001 7.170354-6.5721038 11.337791l.0894494 31.314802c.0114566 4.166556 2.9734198 5.847713 6.6148455 3.753424l49.4562372-28.440493c3.6414258-2.093849 6.5835603-7.170354 6.5716631-11.336911l-.0890087-31.31436c-.0118972-4.167878-2.9734198-5.849036-6.6148455-3.754746z" fill="#f8f8fa"/><path d="m39.9382095 182.748042 49.4562371-28.440494c1.8326101-1.053971 3.4924904-1.151749 4.6914642-.457616l3.2664435 1.890366c-1.1989738-.693692-2.8592947-.595915-4.6914641.457616l-49.4562372 28.440934c-3.6414258 2.093849-6.584001 7.170354-6.5721038 11.337792l.0890088 31.314801c.0061689 2.069624.7398298 3.526157 1.9233813 4.211041l-3.2664435-1.890366c-1.1835515-.685324-1.9172124-2.141857-1.9229407-4.211482l-.0894494-31.31436c-.0118972-4.167878 2.930678-9.244383 6.5721038-11.338232" fill="#c7c7d1"/><path d="m92.1721794 156.290142-49.030141 28.341395c-3.6101405 2.086802-6.5271587 7.145249-6.5152978 11.298592l31.0962436-2.347101 31.0071986-33.551353c-.0083721-2.940373-1.4831848-4.639148-3.6251222-4.639148-.8830369 0-1.878877.288488-2.9328812.897615" fill="#dedde8"/><path d="m78.7388699 196.495741c-.6292299.369969-1.1430128 1.276394-1.1408097 2.012808.0017626.737736.5190707 1.038116 1.1483006.668147l13.6910382-8.020842c.6305518-.37085 1.1443348-1.277274 1.1421316-2.01501-.0022032-.736415-.5190706-1.036354-1.1496225-.665945z" fill="#8082ff"/><path d="m73.3742884 204.724339c-.6292299.369969-1.1430129 1.276393-1.1408097 2.012808.0017625.737736.5190706 1.038115 1.1483005.668146l19.055796-11.251465c.6301112-.37085 1.1438942-1.276834 1.1421316-2.01457-.0022032-.736855-.5195112-1.036794-1.1496224-.666384z" fill="#8082ff"/><path d="m8.10040976 269.017877c-2.99809546 1.72432-5.42071874 5.90365-5.41102472 9.335113l.07358641 25.783323c.00925338 3.430582 2.44818024 4.814883 5.4462757 3.090563l40.72016425-23.416842c2.9980954-1.72432 5.4207187-5.90365 5.4110247-9.334672l-.0731458-25.782883c-.009694-3.431463-2.4481802-4.815764-5.4467163-3.091444z" fill="#f8f8fa"/><path d="m5.41106879 267.461188 40.72016421-23.416842c1.5087417-.867665 2.876039-.948266 3.8630663-.377016l2.6892088 1.556953c-.9870274-.57125-2.3538839-.49109-3.8626257.376576l-40.72060483 23.416842c-2.99809546 1.72432-5.42071874 5.90409-5.41102472 9.335553l.07358641 25.782883c.00484701 1.7045.6089606 2.903376 1.58320943 3.467579l-2.68920878-1.556513c-.97424883-.564203-1.57880306-1.763519-1.58320944-3.467579l-.07358641-25.783323c-.00969401-3.431463 2.41292927-7.610793 5.41102473-9.335113" fill="#c7c7d1"/><path d="m48.4184485 245.676791-40.36941704 23.33536c-2.97253849 1.718154-5.37401119 5.882949-5.36434642 9.302521l25.60325326-1.932208 25.5300783-27.6248c-.0070502-2.421535-1.2214463-3.819931-2.9848763-3.819931-.7270514 0-1.5470772.237397-2.4146918.739058" fill="#dedde8"/><path d="m37.3579702 278.780525c-.5181893.304784-.941201 1.050888-.9394384 1.657373.0017625.607366.427418.854893.9456074.550109l11.2728213-6.604389c.5190706-.304784.9420823-1.051329.9403197-1.658695-.0017625-.606485-.427418-.853571-.9464887-.548347z" fill="#8082ff"/><path d="m32.940979 285.555584c-.5181894.304784-.9412011 1.050888-.9394385 1.657373.0017625.607366.4274181.854893.9456074.550109l15.6897685-9.264202c.5190706-.305225.9420823-1.051329.9403198-1.658695-.0017626-.606485-.4274181-.853572-.9464887-.548347z" fill="#8082ff"/><path d="m394.09859 123.672874c-2.998095 1.72432-5.420719 5.90365-5.411024 9.335113l.073586 25.783323c.009253 3.430582 2.44818 4.814883 5.446276 3.090563l40.720164-23.416842c2.998095-1.72432 5.420719-5.90365 5.411025-9.334672l-.073146-25.782883c-.009694-3.4314631-2.44818-4.8157641-5.446717-3.091444z" fill="#f8f8fa"/><path d="m391.409249 122.116141 40.720164-23.4168419c1.508742-.8676657 2.876039-.9482661 3.863067-.3765757l2.689209 1.5565128c-.987028-.5712499-2.353884-.4910899-3.862626.3765758l-40.720605 23.416842c-2.998095 1.72432-5.420719 5.90409-5.411025 9.335553l.073587 25.782882c.004847 1.704501.60896 2.903377 1.583209 3.46758l-2.689209-1.556513c-.974248-.564203-1.578362-1.763519-1.583209-3.467579l-.073586-25.783323c-.009694-3.431463 2.412929-7.610793 5.411024-9.335113" fill="#c7c7d1"/><path d="m434.416629 100.331788-40.369417 23.33536c-2.972539 1.718154-5.374452 5.882949-5.364349 9.302521l25.603256-1.932208 25.530078-27.6248c-.00705-2.421536-1.221446-3.8199306-2.984876-3.8199306-.727052 0-1.547077.2373968-2.414692.7390576" fill="#dedde8"/><g fill="#8082ff"><path d="m423.356151 133.435522c-.51819.304784-.941201 1.050888-.939439 1.657373.001763.607366.427418.854893.945608.550109l11.272821-6.604389c.519071-.304784.942082-1.051329.94032-1.658695-.001763-.606485-.427418-.853571-.946489-.548347z"/><path d="m418.939159 140.210581c-.518189.304784-.941201 1.050888-.939438 1.657373.001762.607366.427418.854893.945607.550109l15.689769-9.264202c.51907-.305225.942082-1.051329.94032-1.658695-.001763-.606485-.427859-.853572-.946489-.548347z"/><path d="m230.660131 1.81751724c-6.606914-3.81288391-12.031158-.7232015-12.052749 6.86733117l-.222963 78.74263739c-.021591 7.5905326 5.367402 16.9203602 11.973875 20.7328042l39.800114 22.968474c6.608677 3.813765 12.03292.724083 12.054071-6.86645l.223403-78.7426374c.021591-7.5905327-5.367402-16.9203606-11.976078-20.7341254z"/></g><g fill="#fff"><path d="m237.86001 72.3869646-3.330776 4.6743834c-.713833.9984762-1.997849 1.0491267-3.318439.2871665-.090331-.0524123-.171848-.1043841-.249401-.1589986-.081517-.0519719-.163476-.109229-.244994-.1660457-.060367-.0449248-.1247-.0968966-.180661-.1391788-.1247-.0964562-.244994-.1955551-.360882-.3021414-.060367-.0546145-.120294-.1140738-.180661-.1686883-.115888-.116276-.236182-.2351947-.352069-.3616008-.120294-.1286083-.232216-.2673467-.343697-.4007998-.077112-.0942541-.150258-.1907103-.223403-.2924518-.072706-.0964562-.141445-.1955551-.210184-.294654-.064333-.0964562-.133073-.2003999-.192999-.2990583l-.029964-.0422822c-.08989-.1506303-.18022-.301701-.261738-.4576165-.081078-.1510708-.158189-.2994988-.231335-.4554144l-.02115-.0519718c-.137039-.2915709-.252486-.5857844-.350748-.879998-.038776-.1017415-.072705-.21053-.102668-.3166759s-.059486-.207447-.085043-.3162355c-.021591-.1017415-.047148-.2100896-.068299-.3113906-.02115-.116276-.038335-.2052448-.055079-.3043437-.012779-.101301-.025117-.2026021-.033489-.3012605l-.016744-.1484281-.008372-.1479876c-.003966-.0916114-.007932-.1880677-.007932-.2818813l.000441-.0396395c0-.0836835.004406-.1603199.008813-.2418012.00044-.069149.004847-.1360958.013659-.1999595l.017626-.1286083c.039657-.2889283.109278-.5655242.213709-.8121703.03437-.0938136.077993-.1876272.129988-.2664658.043182-.0739938.086365-.1479877.133954-.214494l.060808-.0885283c.682987-.8478459 1.885486-.985263 3.25763-.1933529z"/><path d="m255.513126 82.5744602 3.293322 8.4969569c.705901 1.8176934 1.985511 3.3477799 3.310508 4.1123827l-30.905853-17.8355936c1.32015.7624006 2.604607.7117501 3.317999-.2871665l3.330776-4.6739429z" opacity=".604576"/><path d="m262.137401 86.397254c1.372144.79191 2.569796 2.314509 3.246174 3.9467775l.059486.1581177c.047148.1211208.08989.2448843.132632.3686478.047148.1356553.08989.2792386.128226.4153343.102227.3655647.170085.7214398.20798 1.0552929l.012779.1457854c.008372.0739938.016744.1484281.016303.2175771.003966.0911709.008372.1876271.007932.2717511-.000441.1136333-.004847.2048043-.009254.2911304-.004847.0916114-.009253.1827824-.026878.2669063-.008813.0889688-.022032.1752949-.039217.2594188-.030845.1651648-.070061.3206399-.126463.4712702-.025998.0739938-.056402.1405001-.086806.2122918-.112803.2713106-.268348.4932921-.454297.6778362-.20754.2118513-.457822.3642434-.742473.4523313-.06874.0198197-.142326.0369969-.211065.0515314-.073587.0171771-.150698.0268668-.224285.0339138-.111922.0048448-.22825.0118919-.344578.003964-.116328-.0074875-.237063-.0277477-.357357-.0480079-.116328-.0176176-.232656-.0497697-.357357-.0924923-.05596-.0123323-.120734-.0347947-.181101-.0594593-.059927-.0251051-.120294-.0449248-.180662-.0700299-.163476-.0744343-.326952-.1488685-.490429-.2431225-1.324555-.7646028-2.604166-2.2946893-3.310066-4.1123827l-3.293323-8.4973975z"/><path d="m243.43385 47.0503797c-.320343.4708297-.49131 1.1134308-.495276 1.8626182-.004406.748747.157748 1.6045208.50453 2.5025767l3.293322 8.496957-8.876636 12.4745652-6.624099-3.823014c-1.372144-.7919101-2.574643-.654493-3.257631.1933529z" opacity=".604576"/><path d="m250.096769 50.8955037 15.286586 39.4483956c-.675937-1.6322684-1.87403-3.1548674-3.245734-3.9467775l-6.624539-3.8225735-8.776612-22.6623691 3.330777-4.6739429c.350306-.4906495.515986-1.1521895.518189-1.8982939.001763-.755794-.167883-1.6009972-.488667-2.4444387" opacity=".604576"/><path d="m246.775379 46.7408389c.088568.0510909.176695.1057054.265263.1642839.141885.0916114.28377.1981977.425215.3096289.42169.3272464.82972.7311294 1.216159 1.2164936.240147.2968561.459144.6113299.656549.923161.05552.0916114.107075.1805801.154223.2673467.244554.4228218.445925.8509289.604114 1.2737507.320784.8434415.490429 1.6886447.488226 2.4444387-.001763.7461044-.167442 1.4076444-.517749 1.8982939l-3.330777 4.6743833-3.293763-8.4973974c-.34634-.8976155-.508495-1.7533892-.504529-2.5025766.004406-.748747.175373-1.3913481.495717-1.8621778l.021591-.0273073c.583844-.8258239 1.562499-.9984761 2.625316-.6078064.142326.0524123.279805.1070268.426096.1819015.090331.0444844.17978.0924923.268349.1435833"/><path d="m263.518138 49.3298738c.487785.2814408.960589.8452032 1.219243 1.5129094l1.44529 3.7292004 1.458068-2.0489241c.263061-.3673265.735424-.3845036 1.219684-.1048246.240147.138298.482938.3497089.704579.6267453.674175.8341922.903747 1.9665619.509817 2.5113854l-1.457628 2.0683035 2.903359 1.6754315c.778606.4492482 1.404751 1.562679 1.402107 2.456771-.002644.8945324-.632755 1.2829999-1.411361.8337518l-2.903358-1.6754315 1.441324 3.6869182c.389523.9967144.154223 1.8110868-.522155 1.8661418-.22164.0189389-.46355-.0506506-.702376-.1885081-.485582-.2801195-.957945-.8425606-1.218802-1.5142307l-1.441324-3.7217129-1.462035 2.0564115c-.262619.3717309-.738948.3911102-1.228496.1087886-.236622-.1365362-.476329-.3435428-.696207-.6157343-.674175-.8346327-.89934-1.9344099-.509817-2.4867209l1.462034-2.0066419-2.903799-1.6754315c-.778606-.4492482-1.408717-1.5653216-1.406073-2.4594136s.637161-1.2803574 1.415767-.8311092l2.903359 1.675872-1.445731-3.7441754c-.385117-.9940717-.154223-1.8652609.522596-1.9251606.222081-.0180581.46355.0519718.701935.1893889"/></g><path d="m82.5253975 301.548467-10.1491964 3.407239v12.765696c0 2.584058 3.4404952 4.678788 7.684272 4.678788 4.2442174 0 7.684272-2.09473 7.684272-4.678788v-12.765696z" fill="#f8f8fa"/><path d="m87.7449213 304.955662c0 2.584058-3.4404952 4.678788-7.684272 4.678788s-7.684272-2.09473-7.684272-4.678788 3.4404952-4.678788 7.684272-4.678788 7.684272 2.09473 7.684272 4.678788" fill="#ccc"/><path d="m73.5188174 307.410363c1.3536374 1.334531 3.7767013 2.224219 6.5416997 2.224219 2.765439 0 5.188503-.889688 6.5421404-2.224219.0934151-.271311.1432071-.552311.1432071-.840358 0-2.248003-2.9932484-4.070541-6.6853475-4.070541-3.692099 0-6.6849068 1.822538-6.6849068 4.070541 0 .288047.049792.569047.1432071.840358" fill="#3e5b66"/><path d="m80.0606493 300.276654c-4.2437768 0-7.684272 2.09473-7.684272 4.678788 0 2.584498 3.4404952 4.679228 7.684272 4.679228s7.684272-2.09473 7.684272-4.679228c0-2.584058-3.4404952-4.678788-7.684272-4.678788m0 .538217c3.8736416 0 7.1458134 1.896092 7.1458134 4.140571 0 2.24492-3.2721718 4.141011-7.1458134 4.141011-3.8736415 0-7.1458133-1.896091-7.1458133-4.141011 0-2.244479 3.2721718-4.140571 7.1458133-4.140571" fill="#b3b3b3"/><path d="m86.5918178 283.398444c-.6428896 1.366243-.6517024 2.933766-.6481773 4.443593.0039658 1.696572.0079315 3.393145.0118972 5.089277.0044064 1.931767.0048471 3.893484-.5217144 5.752139-.5261208 1.858654-1.6581177 3.634506-3.3893813 4.493362-.85748.425905-1.9352785.59107-2.7464916.082363-.3591193-.225505-.6340769-.563322-.862327-.920959-1.9511415-3.056209-.1462915-7.163307 1.2562567-10.097954 1.6246293-3.398871 3.9851227-6.450676 6.8999377-8.841821" fill="#27a564"/><path d="m72.0033339 297.349274c-.4816165-6.337043-.1568669-12.793884-1.7114349-18.956512 4.236286 5.150939 6.3011119 12.031042 5.6009394 18.662298 1.4038701-4.38017 2.8227218-8.85063 2.7967242-13.450138-.0123378-2.198674 1.340859-7.387931 1.340859-7.387931s.7966721 4.965073 1.5290111 7.377801c.4996825 1.646802.6010291 3.384336.6992912 5.10249.1432071 2.506981.2864142 5.013522.4296213 7.520503 2.0859764-6.303128 7.6719341-14.989915 7.6719341-14.989915s-2.0560131 16.561843-3.1465902 20.350943c-1.2368686 4.298248-5.2616487 7.221445-9.8724763 6.204911-4.1935441-.924923-5.073056-6.951896-5.3378789-10.43445" fill="#00ad8c"/><path d="m75.2766954 303.595409c-.8773087-2.409203-.0621299-5.056685.4855822-7.561464.6525837-2.985298.9112377-6.108894.2458755-9.09155 2.2062704 4.656326 4.1481586 9.437736 5.8133265 14.3134.4305025 1.260538.8442609 2.631625.4349089 3.89921-.3855575 1.195353-2.546883 3.306819-3.9807164 2.953587-1.1271499-.277918-2.6143004-3.456128-2.9989767-4.513183" fill="#4bae4f"/></g></svg>