<?xml version="1.0" encoding="UTF-8"?>
<svg width="498px" height="35px" viewBox="0 0 498 35" version="1.1" xmlns="http://www.w3.org/2000/svg" xmlns:xlink="http://www.w3.org/1999/xlink">
    <!-- Generator: Sketch 52.5 (67469) - http://www.bohemiancoding.com/sketch -->
    <title>logo-band</title>
    <desc>Created with Sketch.</desc>
    <defs>
        <linearGradient x1="0%" y1="50.0001434%" x2="100%" y2="50.0001434%" id="linearGradient-1">
            <stop stop-color="#1D1C45" offset="0%"></stop>
            <stop stop-color="#174489" offset="100%"></stop>
        </linearGradient>
        <radialGradient cx="17.5403709%" cy="17.4683182%" fx="17.5403709%" fy="17.4683182%" r="134.368999%" gradientTransform="translate(0.175404,0.174683),scale(0.694249,1.000000),translate(-0.175404,-0.174683)" id="radialGradient-2">
            <stop stop-color="#9DD5F6" offset="0%"></stop>
            <stop stop-color="#98D3F5" offset="7.11%"></stop>
            <stop stop-color="#89CEF3" offset="15.75%"></stop>
            <stop stop-color="#70C6EF" offset="25.16%"></stop>
            <stop stop-color="#4EBBEA" offset="35.14%"></stop>
            <stop stop-color="#23ADE3" offset="45.46%"></stop>
            <stop stop-color="#0DA6E0" offset="50%"></stop>
            <stop stop-color="#2E77BC" offset="100%"></stop>
        </radialGradient>
    </defs>
    <g id="logo-band" stroke="none" stroke-width="1" fill="none" fill-rule="evenodd">
        <g id="iyzico-logo" transform="translate(0.000000, 4.000000)" fill="#00BBD3" fill-rule="nonzero">
            <path d="M25.4895081,15.4787523 L32.2058395,15.4787523 C33.07588,15.4787523 33.7812389,16.188375 33.7812389,17.0637888 C33.7812389,17.9392949 33.07588,18.6489175 32.2058395,18.6489175 L21.6860411,18.6489175 C21.0488864,18.6489175 20.4744284,18.2627491 20.2306187,17.6704271 C19.9868091,17.0780126 20.1215654,16.3963759 20.5721909,15.9429674 L28.402556,8.06424352 L22.4734654,8.06424352 C21.6034249,8.06424352 20.898066,7.35452847 20.898066,6.47920707 C20.898066,5.60370096 21.6034249,4.89398591 22.4734654,4.89398591 L32.2059312,4.89398591 C32.8431776,4.89398591 33.4176357,5.28024675 33.6614454,5.87256881 C33.9053469,6.4647985 33.7704988,7.14662001 33.3199651,7.59993618 L25.4895081,15.4787523 Z M0,16.9253648 L0,6.61759412 C0,5.66718185 0.768514414,4.89401361 1.71309317,4.89401361 C2.65767192,4.89401361 3.42618634,5.66718185 3.42618634,6.61759412 L3.42618634,16.9253648 C3.42618634,17.8757771 2.65767192,18.6489453 1.71309317,18.6489453 C0.768514414,18.6489453 0,17.8757771 0,16.9253648 Z M36.006773,16.9253648 L36.006773,6.61759412 C36.006773,5.66718185 36.7752873,4.89401361 37.7198661,4.89401361 C38.6644449,4.89401361 39.4328674,5.66718185 39.4328674,6.61759412 L39.4328674,16.9253648 C39.4328674,17.8757771 38.6644449,18.6489453 37.7198661,18.6489453 C36.7752873,18.6489453 36.006773,17.8757771 36.006773,16.9253648 Z M55.3294945,11.7714055 C55.3294945,7.97926983 58.3957495,4.89398591 62.1647931,4.89398591 C65.9338368,4.89398591 69,7.97926983 69,11.7714055 C69,15.563726 65.9338368,18.6489175 62.1647931,18.6489175 C58.3957495,18.6489175 55.3294945,15.563726 55.3294945,11.7714055 Z M58.4802934,11.7714055 C58.4802934,13.8156694 60.1331686,15.4787523 62.1647931,15.4787523 C64.1964178,15.4787523 65.8492928,13.8156694 65.8492928,11.7714055 C65.8492928,9.72732645 64.1964178,8.06424352 62.1647931,8.06424352 C60.1331686,8.06424352 58.4802934,9.72732645 58.4802934,11.7714055 Z M48.4934891,15.4787708 C49.4777235,15.4787708 50.4028416,15.0931565 51.0986537,14.3929548 C51.7138692,13.7740323 52.7114142,13.7740323 53.3266295,14.3929548 C53.9419368,15.0120621 53.9419368,16.0155828 53.3266295,16.6346901 C52.0357052,17.9335869 50.3193074,18.6489361 48.4934891,18.6489361 C44.7245372,18.6489361 41.6582822,15.5637445 41.6582822,11.771424 C41.6582822,7.9792883 44.7245372,4.89400437 48.4934891,4.89400437 C50.3186648,4.89400437 52.0346955,5.60889174 53.325528,6.90714198 C53.940927,7.52606449 53.9411106,8.52977005 53.3260788,9.14896964 C52.7108633,9.76816925 51.7134101,9.76835397 51.098103,9.14943146 C50.4022908,8.44959922 49.4772646,8.06426199 48.4934891,8.06426199 C46.4618644,8.06426199 44.8089893,9.72725257 44.8089893,11.771424 C44.8089893,13.8156879 46.4618644,15.4787708 48.4934891,15.4787708 Z M9.17957972e-05,1.72367287 C9.17957972e-05,0.773260598 0.768514414,0 1.71318496,0 C2.65776372,0 3.42618634,0.773260598 3.42618634,1.72367287 C3.42618634,2.67408514 2.65776372,3.44725338 1.71318496,3.44725338 C0.768514414,3.44725338 9.17957972e-05,2.67408514 9.17957972e-05,1.72367287 Z M36.006773,1.72367287 C36.006773,0.773260598 36.7752873,0 37.7198661,0 C38.6644449,0 39.4328674,0.773260598 39.4328674,1.72367287 C39.4328674,2.67408514 38.6644449,3.44725338 37.7198661,3.44725338 C36.7752873,3.44725338 36.006773,2.67408514 36.006773,1.72367287 Z M9.16007311,23.7606947 C8.75084744,23.5548182 8.44571822,23.2008844 8.30104805,22.7641011 C8.15628607,22.3274102 8.18933256,21.8600549 8.39394539,21.4482096 L10.5718007,17.0638442 L5.76491376,7.38801919 C5.3425613,6.53791281 5.68624476,5.50049487 6.53104148,5.07544169 C7.37592999,4.65048086 8.4068886,4.99619447 8.82933285,5.84620849 L12.4872117,13.2095484 L16.1480282,5.84805574 C16.5704724,4.99804174 17.601431,4.65223575 18.4464114,5.07719658 C18.855637,5.28316542 19.1607663,5.63709932 19.3054364,6.07388257 C19.4501984,6.51066581 19.4171519,6.97802112 19.2125391,7.38977408 L11.4584562,22.989928 C11.1661785,23.577909 10.5786854,23.9431111 9.92500749,23.9431111 C9.65797351,23.9431111 9.4005781,23.8817823 9.16007311,23.7606947 Z" id="logo_colored"></path>
        </g>
        <g id="mastercard-seeklogo.com" transform="translate(90.000000, 1.000000)">
            <path d="M7.08996393,29.8509516 L7.08996393,27.8653004 C7.08996393,27.1041342 6.62175878,26.6077214 5.81912138,26.6077214 C5.41780269,26.6077214 4.98304076,26.7400981 4.68205174,27.1703225 C4.44794916,26.8062865 4.11351691,26.6077214 3.61186855,26.6077214 C3.2774363,26.6077214 2.94300405,26.707004 2.67545826,27.0710402 L2.67545826,26.6739098 L1.97315054,26.6739098 L1.97315054,29.8509516 L2.67545826,29.8509516 L2.67545826,28.0969598 C2.67545826,27.5343586 2.97644728,27.2696052 3.44465242,27.2696052 C3.91285757,27.2696052 4.14696014,27.5674527 4.14696014,28.0969598 L4.14696014,29.8509516 L4.84926786,29.8509516 L4.84926786,28.0969598 C4.84926786,27.5343586 5.18370011,27.2696052 5.61846203,27.2696052 C6.08666717,27.2696052 6.32076976,27.5674527 6.32076976,28.0969598 L6.32076976,29.8509516 L7.08996393,29.8509516 Z M17.4908068,26.6739098 L16.3537372,26.6739098 L16.3537372,25.7141784 L15.6514296,25.7141784 L15.6514296,26.6739098 L15.0160082,26.6739098 L15.0160082,27.3026992 L15.6514296,27.3026992 L15.6514296,28.7588435 C15.6514296,29.4869156 15.9524185,29.91714 16.755056,29.91714 C17.0560449,29.91714 17.3904772,29.8178573 17.6245797,29.6854806 L17.4239205,29.0897854 C17.223261,29.222162 16.9891585,29.2552562 16.8219424,29.2552562 C16.4875102,29.2552562 16.3537372,29.0566912 16.3537372,28.7257492 L16.3537372,27.3026992 L17.4908068,27.3026992 L17.4908068,26.6739098 Z M23.4437009,26.6077214 C23.0423822,26.6077214 22.7748364,26.8062865 22.6076202,27.0710402 L22.6076202,26.6739098 L21.9053125,26.6739098 L21.9053125,29.8509516 L22.6076202,29.8509516 L22.6076202,28.0638656 C22.6076202,27.5343586 22.8417228,27.236511 23.2764847,27.236511 C23.4102576,27.236511 23.5774738,27.2696052 23.7112467,27.3026992 L23.9119061,26.6408156 C23.7781332,26.6077214 23.5774738,26.6077214 23.4437009,26.6077214 Z M14.4474734,26.9386633 C14.1130411,26.707004 13.644836,26.6077214 13.1431876,26.6077214 C12.3405502,26.6077214 11.8054586,27.0048517 11.8054586,27.6336412 C11.8054586,28.1631482 12.2067773,28.4609958 12.909085,28.5602784 L13.2435173,28.5933725 C13.6113927,28.6595608 13.8120521,28.7588435 13.8120521,28.9243144 C13.8120521,29.1559737 13.5445063,29.3214446 13.0763012,29.3214446 C12.608096,29.3214446 12.2402205,29.1559737 12.0061179,28.9905027 L11.6716857,29.5200098 C12.0395612,29.7847631 12.5412096,29.91714 13.0428579,29.91714 C13.9792682,29.91714 14.5143598,29.4869156 14.5143598,28.8912202 C14.5143598,28.328619 14.0795979,28.0307715 13.4107334,27.9314888 L13.0763012,27.8983946 C12.7753121,27.8653004 12.5412096,27.7991121 12.5412096,27.6005471 C12.5412096,27.3688877 12.7753121,27.236511 13.1431876,27.236511 C13.5445063,27.236511 13.945825,27.4019819 14.1464843,27.5012644 L14.4474734,26.9386633 Z M33.1087928,26.6077214 C32.7074742,26.6077214 32.4399284,26.8062865 32.2727122,27.0710402 L32.2727122,26.6739098 L31.5704045,26.6739098 L31.5704045,29.8509516 L32.2727122,29.8509516 L32.2727122,28.0638656 C32.2727122,27.5343586 32.5068147,27.236511 32.9415767,27.236511 C33.0753496,27.236511 33.2425657,27.2696052 33.3763386,27.3026992 L33.5769981,26.6408156 C33.4432252,26.6077214 33.2425657,26.6077214 33.1087928,26.6077214 Z M24.1460086,28.2624306 C24.1460086,29.222162 24.8148731,29.91714 25.8516131,29.91714 C26.3198182,29.91714 26.6542505,29.8178573 26.9886827,29.5531039 L26.6542505,28.9905027 C26.3867047,29.1890679 26.1191589,29.2883504 25.8181699,29.2883504 C25.249635,29.2883504 24.8483163,28.8912202 24.8483163,28.2624306 C24.8483163,27.6667354 25.249635,27.2696052 25.8181699,27.236511 C26.1191589,27.236511 26.3867047,27.3357935 26.6542505,27.5343586 L26.9886827,26.9717575 C26.6542505,26.707004 26.3198182,26.6077214 25.8516131,26.6077214 C24.8148731,26.6077214 24.1460086,27.3026992 24.1460086,28.2624306 Z M30.6339942,28.2624306 L30.6339942,26.6739098 L29.9316865,26.6739098 L29.9316865,27.0710402 C29.697584,26.7731923 29.3631516,26.6077214 28.9283897,26.6077214 C28.0254227,26.6077214 27.323115,27.3026992 27.323115,28.2624306 C27.323115,29.222162 28.0254227,29.91714 28.9283897,29.91714 C29.3965949,29.91714 29.7310272,29.7516689 29.9316865,29.4538214 L29.9316865,29.8509516 L30.6339942,29.8509516 L30.6339942,28.2624306 Z M28.058866,28.2624306 C28.058866,27.6998294 28.4267414,27.236511 29.0287195,27.236511 C29.5972543,27.236511 29.998573,27.6667354 29.998573,28.2624306 C29.998573,28.8250318 29.5972543,29.2883504 29.0287195,29.2883504 C28.4267414,29.2552562 28.058866,28.8250318 28.058866,28.2624306 Z M19.6646164,26.6077214 C18.7282061,26.6077214 18.0593417,27.2696052 18.0593417,28.2624306 C18.0593417,29.2552562 18.7282061,29.91714 19.6980597,29.91714 C20.1662649,29.91714 20.6344699,29.7847631 21.0023454,29.4869156 L20.6679132,28.9905027 C20.4003674,29.1890679 20.0659351,29.3214446 19.7315029,29.3214446 C19.296741,29.3214446 18.861979,29.1228796 18.7616494,28.5602784 L21.1361182,28.5602784 L21.1361182,28.2955248 C21.1695615,27.2696052 20.5675834,26.6077214 19.6646164,26.6077214 Z M19.6646164,27.2034167 C20.0993784,27.2034167 20.4003674,27.4681704 20.4672538,27.9645831 L18.7950927,27.9645831 C18.861979,27.5343586 19.1629681,27.2034167 19.6646164,27.2034167 Z M37.0885366,28.2624306 L37.0885366,25.4163309 L36.3862288,25.4163309 L36.3862288,27.0710402 C36.1521263,26.7731923 35.817694,26.6077214 35.3829322,26.6077214 C34.4799651,26.6077214 33.7776573,27.3026992 33.7776573,28.2624306 C33.7776573,29.222162 34.4799651,29.91714 35.3829322,29.91714 C35.8511373,29.91714 36.1855696,29.7516689 36.3862288,29.4538214 L36.3862288,29.8509516 L37.0885366,29.8509516 L37.0885366,28.2624306 Z M34.5134083,28.2624306 C34.5134083,27.6998294 34.8812837,27.236511 35.4832618,27.236511 C36.0517967,27.236511 36.4531154,27.6667354 36.4531154,28.2624306 C36.4531154,28.8250318 36.0517967,29.2883504 35.4832618,29.2883504 C34.8812837,29.2552562 34.5134083,28.8250318 34.5134083,28.2624306 Z M11.0362645,28.2624306 L11.0362645,26.6739098 L10.3339568,26.6739098 L10.3339568,27.0710402 C10.0998541,26.7731923 9.76542191,26.6077214 9.33065996,26.6077214 C8.42769289,26.6077214 7.72538515,27.3026992 7.72538515,28.2624306 C7.72538515,29.222162 8.42769289,29.91714 9.33065996,29.91714 C9.7988651,29.91714 10.1332974,29.7516689 10.3339568,29.4538214 L10.3339568,29.8509516 L11.0362645,29.8509516 L11.0362645,28.2624306 Z M8.42769289,28.2624306 C8.42769289,27.6998294 8.79556839,27.236511 9.39754641,27.236511 C9.96608125,27.236511 10.3673999,27.6667354 10.3673999,28.2624306 C10.3673999,28.8250318 9.96608125,29.2883504 9.39754641,29.2883504 C8.79556839,29.2552562 8.42769289,28.8250318 8.42769289,28.2624306 Z" id="Shape" fill="#000000" fill-rule="nonzero"></path>
            <rect id="Rectangle" fill="#FF5F00" x="14.2133741" y="2.54825258" width="10.5346158" height="18.7313079"></rect>
            <path d="M14.8822353,11.9139035 C14.8822353,8.10807226 16.6881695,4.73246546 19.4639571,2.54824928 C17.4239203,0.959728417 14.8487921,-2.93574083e-06 12.0395612,-2.93574083e-06 C5.38435945,-2.93574083e-06 2.62917494e-07,5.32816078 2.62917494e-07,11.9139035 C2.62917494e-07,18.4996462 5.38435945,23.8278099 12.0395612,23.8278099 C14.8487921,23.8278099 17.4239203,22.8680786 19.4639571,21.2795578 C16.6881695,19.1284357 14.8822353,15.7197348 14.8822353,11.9139035 Z" id="Path" fill="#EB001B"></path>
            <path d="M38.9613572,11.9139035 C38.9613572,18.4996462 33.5769981,23.8278099 26.9217963,23.8278099 C24.1125653,23.8278099 21.5374369,22.8680786 19.4974004,21.2795578 C22.3066312,19.0953416 24.0791221,15.7197348 24.0791221,11.9139035 C24.0791221,8.10807226 22.2731879,4.73246546 19.4974004,2.54824928 C21.5374369,0.959728417 24.1125653,-2.93574083e-06 26.9217963,-2.93574083e-06 C33.5769981,-2.93574083e-06 38.9613572,5.36125497 38.9613572,11.9139035 Z" id="Path" fill="#F79E1B"></path>
        </g>
        <g id="maestro-seeklogo.com" transform="translate(149.000000, 1.000000)">
            <polygon id="Path" fill="#6C6BBD" points="24.7728392 21.3037122 14.2272206 21.3037122 14.2272206 2.54973942 24.7728392 2.54973942"></polygon>
            <path d="M14.8965861,11.927108 C14.8965861,15.7314376 16.6965903,19.1202257 19.4996621,21.3040944 C17.4498488,22.9010484 14.8628696,23.8542162 12.0513687,23.8542162 C5.39541439,23.8542162 -5.88874022e-07,18.5143537 -5.88874022e-07,11.927108 C-5.88874022e-07,5.33986224 5.39541439,-1.50753768e-07 12.0513687,-1.50753768e-07 C14.8628696,-1.50753768e-07 17.4498488,0.953167566 19.4996621,2.55012158 C16.6965903,4.73399032 14.8965861,8.12277835 14.8965861,11.927108" id="Path" fill="#D32011" transform="translate(9.749831, 11.927108) scale(-1, 1) rotate(-180.000000) translate(-9.749831, -11.927108) "></path>
            <path d="M38.9999991,11.927108 C38.9999991,5.33986224 33.604584,-1.50753768e-07 26.9486298,-1.50753768e-07 C24.1371289,-1.50753768e-07 21.5501496,0.953167566 19.4995701,2.55012158 C22.3034082,4.73399032 24.1034124,8.12277835 24.1034124,11.927108 C24.1034124,15.7314376 22.3034082,19.1202257 19.4995701,21.3040944 C21.5501496,22.9010484 24.1371289,23.8542162 26.9486298,23.8542162 C33.604584,23.8542162 38.9999991,18.5143537 38.9999991,11.927108" id="Path" fill="#0099DF" transform="translate(29.249785, 11.927108) scale(-1, 1) rotate(-180.000000) translate(-29.249785, -11.927108) "></path>
            <path d="M28.3409089,29.0689609 C28.4811391,29.0689609 28.6826722,29.0424208 28.8366955,28.9825161 L28.6221356,28.3334218 C28.4750088,28.3933265 28.327882,28.4130421 28.1868854,28.4130421 C27.731712,28.4130421 27.5041252,28.1218596 27.5041252,27.598641 L27.5041252,25.8227311 L26.807572,25.8227311 L26.807572,28.9893407 L27.4972288,28.9893407 L27.4972288,28.6048889 C27.6780721,28.8831805 27.9393753,29.0689609 28.3409089,29.0689609 Z M25.7677228,28.359962 L24.629789,28.359962 L24.629789,26.9290729 C24.629789,26.6113503 24.7431993,26.3990297 25.0918592,26.3990297 C25.2727025,26.3990297 25.5002892,26.4589345 25.7071862,26.5779856 L25.9079529,25.988796 C25.6872629,25.8363802 25.3393693,25.7431108 25.0382192,25.7431108 C24.2144624,25.7431108 23.9271054,26.1806429 23.9271054,26.916182 L23.9271054,28.359962 L23.2772955,28.359962 L23.2772955,28.9893407 L23.9271054,28.9893407 L23.9271054,29.9500913 L24.629789,29.9500913 L24.629789,28.9893407 L25.7677228,28.9893407 L25.7677228,28.359962 Z M16.8565907,27.6843276 C16.9309204,28.1415751 17.2113808,28.4532312 17.7071674,28.4532312 C18.1554444,28.4532312 18.4435675,28.1749396 18.517131,27.6843276 L16.8565907,27.6843276 Z M19.2405044,27.406036 C19.2336079,28.3933265 18.6175144,29.0689609 17.7201943,29.0689609 C16.7830274,29.0689609 16.1270871,28.3933265 16.1270871,27.406036 C16.1270871,26.399788 16.8098473,25.7438691 17.7677041,25.7438691 C18.2496975,25.7438691 18.6910778,25.8629204 19.0795846,26.1874675 L18.7378212,26.6977951 C18.4703877,26.4854745 18.1286244,26.3664234 17.8075508,26.3664234 C17.359274,26.3664234 16.9508438,26.5719194 16.8504605,27.1413935 L19.2267113,27.1413935 C19.2336079,27.2278382 19.2405044,27.3135247 19.2405044,27.406036 Z M22.2995154,28.1810061 C22.1056453,28.3008155 21.7110083,28.4532312 21.3025782,28.4532312 C20.9209682,28.4532312 20.6933813,28.3137063 20.6933813,28.0816704 C20.6933813,27.8701079 20.933995,27.8102032 21.235145,27.7707724 L21.5631152,27.7245167 C22.2596685,27.6244229 22.6811255,27.3332403 22.6811255,26.7766571 C22.6811255,26.1738184 22.145492,25.7431108 21.2221181,25.7431108 C20.6995116,25.7431108 20.2175182,25.8758112 19.8359081,26.1541028 L20.1638781,26.6909706 C20.3983615,26.5120147 20.7470213,26.3595987 21.2290147,26.3595987 C21.7041117,26.3595987 21.9585184,26.4983655 21.9585184,26.7440507 C21.9585184,26.9222483 21.7776751,27.0223423 21.396065,27.0746641 L21.0680949,27.1209196 C20.351618,27.2210136 19.9631114,27.5387362 19.9631114,28.0551302 C19.9631114,28.684509 20.485718,29.0689609 21.2956816,29.0689609 C21.8044951,29.0689609 22.2665651,28.9559762 22.6006654,28.7375893 L22.2995154,28.1810061 Z M30.8857426,28.4145586 C30.7424471,28.4145586 30.6098797,28.3895352 30.4865078,28.3402464 C30.3639022,28.2901994 30.2573886,28.2204369 30.1677331,28.130959 C30.0780777,28.0414811 30.0075794,27.9338043 29.9562384,27.8086868 C29.9048971,27.6835691 29.8796099,27.5455609 29.8796099,27.3954199 C29.8796099,27.2445207 29.9048971,27.1072705 29.9562384,26.982153 C30.0075794,26.8570355 30.0780777,26.7493586 30.1677331,26.6598807 C30.2573886,26.5704027 30.3639022,26.5006402 30.4865078,26.4505933 C30.6098797,26.4005463 30.7424471,26.3762812 30.8857426,26.3762812 C31.0290379,26.3762812 31.1623714,26.4005463 31.2849772,26.4505933 C31.408349,26.5006402 31.515629,26.5704027 31.6052845,26.6598807 C31.6964724,26.7493586 31.7669706,26.8570355 31.8190781,26.982153 C31.8704191,27.1072705 31.8957065,27.2445207 31.8957065,27.3954199 C31.8957065,27.5455609 31.8704191,27.6835691 31.8190781,27.8086868 C31.7669706,27.9338043 31.6964724,28.0414811 31.6052845,28.130959 C31.515629,28.2204369 31.408349,28.2901994 31.2849772,28.3402464 C31.1623714,28.3895352 31.0290379,28.4145586 30.8857426,28.4145586 Z M30.8857424,29.0689609 C31.1340189,29.0689609 31.3639045,29.0264968 31.5753992,28.9408104 C31.7868939,28.855882 31.9700361,28.7383476 32.1240594,28.5889648 C32.2788491,28.4395821 32.399156,28.2629011 32.4865125,28.0596799 C32.573869,27.8557006 32.6175473,27.6342805 32.6175473,27.3954199 C32.6175473,27.1565591 32.573869,26.9351392 32.4865125,26.7311599 C32.399156,26.5279387 32.2788491,26.3504994 32.1240594,26.2011166 C31.9700361,26.0517339 31.7868939,25.9349576 31.5753992,25.8492712 C31.3639045,25.764343 31.1340189,25.7218788 30.8857424,25.7218788 C30.637466,25.7218788 30.4075803,25.764343 30.1960856,25.8492712 C29.9845909,25.9349576 29.8029813,26.0517339 29.6497243,26.2011166 C29.4964672,26.3504994 29.3761603,26.5279387 29.2888038,26.7311599 C29.2014473,26.9351392 29.157769,27.1565591 29.157769,27.3954199 C29.157769,27.6342805 29.2014473,27.8557006 29.2888038,28.0596799 C29.3761603,28.2629011 29.4964672,28.4395821 29.6497243,28.5889648 C29.8029813,28.7383476 29.9845909,28.855882 30.1960856,28.9408104 C30.4075803,29.0264968 30.637466,29.0689609 30.8857424,29.0689609 Z M12.7891482,27.406036 C12.7891482,27.9626192 13.1577315,28.4198667 13.7600317,28.4198667 C14.335512,28.4198667 14.7240186,27.9823346 14.7240186,27.406036 C14.7240186,26.8297372 14.335512,26.3929634 13.7600317,26.3929634 C13.1577315,26.3929634 12.7891482,26.8494528 12.7891482,27.406036 Z M15.3799588,27.406036 L15.3799588,28.9893407 L14.6841718,28.9893407 L14.6841718,28.6048889 C14.4627154,28.890005 14.128615,29.0689609 13.6734415,29.0689609 C12.7761214,29.0689609 12.0734377,28.3736111 12.0734377,27.406036 C12.0734377,26.439219 12.7761214,25.7431108 13.6734415,25.7431108 C14.128615,25.7431108 14.4627154,25.9220668 14.6841718,26.2071829 L14.6841718,25.8227311 L15.3799588,25.8227311 L15.3799588,27.406036 Z M11.4573444,25.8227311 L11.4573444,27.8102032 C11.4573444,28.5586333 10.9753508,29.0621364 10.1991038,29.0689609 C9.79067372,29.0757856 9.36845051,28.9499097 9.07419696,28.5055532 C8.85350677,28.8566405 8.504847,29.0689609 8.01595694,29.0689609 C7.67495998,29.0689609 7.34009329,28.9696253 7.07878999,28.5988226 L7.07878999,28.9893407 L6.38300291,28.9893407 L6.38300291,25.8227311 L7.08568656,25.8227311 L7.08568656,27.5781672 C7.08568656,28.1279258 7.39373325,28.4198667 7.86883013,28.4198667 C8.33090022,28.4198667 8.56538353,28.1218596 8.56538353,27.5849917 L8.56538353,25.8227311 L9.26806717,25.8227311 L9.26806717,27.5781672 C9.26806717,28.1279258 9.58990698,28.4198667 10.0512108,28.4198667 C10.5270739,28.4198667 10.7546607,28.1218596 10.7546607,27.5849917 L10.7546607,25.8227311 L11.4573444,25.8227311 Z" id="Shape" fill="#110F0D" fill-rule="nonzero" transform="translate(19.500275, 27.835985) scale(-1, 1) rotate(-180.000000) translate(-19.500275, -27.835985) "></path>
        </g>
        <path d="M238.698324,6.35379455 L234.555519,25.6975257 L229.545,25.6975257 L233.689528,6.35379455 L238.698324,6.35379455 Z M259.776028,18.8435448 L262.413324,11.5804352 L263.931463,18.8435448 L259.776028,18.8435448 Z M265.366361,25.6975257 L270,25.6975257 L265.955361,6.35379455 L261.67937,6.35379455 C260.717509,6.35379455 259.90663,6.91201009 259.546685,7.7724132 L252.029472,25.6975257 L257.288852,25.6975257 L258.333954,22.8075346 L264.761,22.8075346 L265.366361,25.6975257 Z M252.289815,19.3814043 C252.312204,14.2766134 245.222389,13.994782 245.271185,11.7137533 C245.286685,11.0202127 245.948019,10.2828063 247.39612,10.0938674 C248.112852,10.0004014 250.092546,9.9278649 252.335167,10.9591445 L253.215509,6.85753605 C252.009093,6.42031022 250.458806,6 248.528194,6 C243.576806,6 240.091028,8.62966255 240.063185,12.3938186 C240.030176,15.1800224 242.550648,16.7325325 244.449685,17.6588778 C246.400676,18.6067261 247.05512,19.2148284 247.047944,20.0626165 C247.033306,21.3611055 245.491056,21.9333696 244.049269,21.9557327 C241.530519,21.9950113 240.068639,21.2756673 238.903843,20.7335073 L237.996806,24.9724476 C239.166194,25.5091602 241.327009,25.9770636 243.567907,26 C248.831306,26 252.273454,23.4041687 252.289815,19.3814043 Z M231.53962,6.35379455 L223.4225,25.6975257 L218.126954,25.6975257 L214.132546,10.2598698 C213.89,9.30944121 213.679602,8.96052066 212.942204,8.56085324 C211.738083,7.90745148 209.749491,7.2950486 208,6.91459044 L208.117972,6.35379455 L216.643259,6.35379455 C217.72912,6.35379455 218.706769,7.07543221 218.953333,8.32575475 L221.063056,19.5195963 L226.27737,6.35379455 L231.53962,6.35379455 Z" id="Fill-1" fill="url(#linearGradient-1)"></path>
        <g id="visa-electron-seeklogo.com" transform="translate(291.000000, 6.000000)" fill="#1A1F71" fill-rule="nonzero">
            <path d="M23.9194526,0.358515945 L15.6715597,19.9974012 L10.2901555,19.9974012 L6.23097257,4.32387092 C5.98519309,3.36073571 5.77119198,3.00623449 5.02218803,2.59914023 C3.79811769,1.93550434 1.77677249,1.31482611 0,0.928608491 L0.11987281,0.358515945 L8.78329802,0.358515945 C9.88588652,0.358515945 10.8786586,1.09120531 11.1308743,2.35986196 L13.2757125,13.7251788 L18.5706313,0.358515945 L23.9194526,0.358515945 Z M31.1942841,0.358515945 L26.985059,19.9974012 L21.8940848,19.9974012 L26.10331,0.358515945 L31.1942841,0.358515945 Z M45.0037928,13.5854659 C45.0251124,8.40324441 37.8242963,8.11578929 37.8713605,5.80008942 C37.8886577,5.09630616 38.5604282,4.3467549 40.0310825,4.155252 C40.7595712,4.06130718 42.7720668,3.98623159 45.0516615,5.03447924 L45.9434669,0.8675845 C44.7185918,0.42556204 43.1425459,0 41.1819416,0 C36.1492949,0 32.6090247,2.66779223 32.5808666,6.49102553 C32.5478815,9.31900573 35.1094588,10.8951912 37.035871,11.8370483 C39.0202086,12.7989791 39.685543,13.4172485 39.6762911,14.2768035 C39.6622121,15.59444 38.0917978,16.1777812 36.6316022,16.1994607 C34.0712316,16.2400096 32.5869004,15.508926 31.403056,14.9585057 L30.47907,19.2635074 C31.6701551,19.8083071 33.8652754,20.2816445 36.1388364,20.3057329 C41.4888646,20.3057329 44.9881048,17.6684527 45.0037928,13.5854659 Z M58.2931821,19.9974012 L63,19.9974012 L58.8877191,0.358515945 L54.5449445,0.358515945 C53.5654468,0.358515945 52.7424274,0.925798175 52.3771775,1.79820035 L44.7383027,19.9974012 L50.0843082,19.9974012 L51.1446595,17.0638334 L57.6761188,17.0638334 L58.2931821,19.9974012 Z M52.6104869,13.0394618 L55.2911325,5.66439135 L56.8309753,13.0394618 L52.6104869,13.0394618 Z M37.7095322,25.4031633 L35.6411229,25.4031633 L35.6411229,27.3246159 L37.9549096,27.3246159 L37.9549096,27.9023365 L34.9440102,27.9023365 L34.9440102,22.5715698 L37.8362435,22.5715698 L37.8362435,23.1492903 L35.6411229,23.1492903 L35.6411229,24.8334721 L37.7095322,24.8334721 L37.7095322,25.4031633 Z M39.023507,22.2871659 L39.72062,22.2871659 L39.72062,27.9021759 L39.023507,27.9021759 L39.023507,22.2871659 Z M41.47917,26.1146949 C41.494858,27.0561505 42.0893951,27.4435725 42.7941505,27.4435725 C43.2937548,27.4435725 43.6026888,27.3564527 43.8565134,27.2460474 L43.9832246,27.7442762 C43.7374451,27.8546815 43.3098451,27.9891753 42.6992179,27.9891753 C41.5189936,27.9891753 40.8138358,27.2063017 40.8138358,26.0516635 C40.8138358,24.8970253 41.494858,23.9953157 42.6123301,23.9953157 C43.8722014,23.9953157 44.1972257,25.0869225 44.1972257,25.7907057 C44.1972257,25.9328273 44.1891807,26.0356045 44.1730903,26.1146949 L41.47917,26.1146949 Z M43.5234439,25.6164661 C43.531489,25.1816703 43.3412211,24.4935444 42.5568184,24.4935444 C41.8436156,24.4935444 41.5423245,25.1342963 41.4868129,25.6164661 L43.5234439,25.6164661 Z M47.9910793,27.7677223 C47.8088565,27.8548421 47.4045875,27.9893357 46.8896976,27.9893357 C45.7328045,27.9893357 44.9801801,27.2064623 44.9801801,26.0357651 C44.9801801,24.8574401 45.7879137,23.9954762 47.0401421,23.9954762 C47.452054,23.9954762 47.8164994,24.0978521 48.0067676,24.2010307 L47.8486801,24.7309759 C47.6817432,24.6438561 47.4202757,24.5487069 47.0401421,24.5487069 C46.1604044,24.5487069 45.6853382,25.2051161 45.6853382,25.9964207 C45.6853382,26.8820715 46.2557397,27.4276741 47.0164088,27.4276741 C47.4126328,27.4276741 47.6741005,27.3329265 47.8720111,27.2458067 L47.9910793,27.7677223 Z M49.9469773,23.1570387 L49.9469773,24.074406 L50.9449788,24.074406 L50.9449788,24.6039498 L49.9469773,24.6039498 L49.9469773,26.6683269 C49.9469773,27.1432705 50.0817338,27.4118561 50.4699125,27.4118561 C50.659778,27.4118561 50.7712036,27.3961987 50.8741816,27.3640807 L50.9059599,27.8944275 C50.7712036,27.9418013 50.5572025,27.9891753 50.2876897,27.9891753 C49.9626653,27.9891753 49.7011978,27.8783685 49.5350654,27.6969025 C49.3447975,27.4829171 49.2655528,27.1432705 49.2655528,26.6924155 L49.2655528,24.6039498 L48.6710157,24.6039498 L48.6710157,24.074406 L49.2655528,24.074406 L49.2655528,23.3625932 L49.9469773,23.1570387 Z M51.9190058,25.2687095 C51.9190058,24.8178548 51.9105584,24.4304328 51.8872275,24.0743257 L52.4974524,24.0743257 L52.5292307,24.8335124 L52.5525619,24.8335124 C52.7271415,24.3196261 53.1547417,23.9952354 53.622165,23.9952354 C53.693767,23.9952354 53.7492786,24.0032649 53.8128353,24.0108928 L53.8128353,24.6677038 C53.7412333,24.6516448 53.6704361,24.6516448 53.5746987,24.6516448 C53.0839442,24.6516448 52.7347844,25.0153798 52.6398516,25.5376969 C52.6241636,25.6324448 52.6161185,25.7508794 52.6161185,25.8620878 L52.6161185,27.9023768 L51.9190058,27.9023768 L51.9190058,25.2687095 Z M58.0986098,25.9566347 C58.0986098,27.3722307 57.107849,27.9892956 56.18869,27.9892956 C55.1585081,27.9892956 54.3507745,27.2297077 54.3507745,26.0200674 C54.3507745,24.7465933 55.1983315,23.9954361 56.2522469,23.9954361 C57.3536284,23.9954361 58.0986098,24.7939671 58.0986098,25.9566347 Z M55.0635752,25.9963807 C55.0635752,26.8346577 55.5390439,27.4673798 56.2204684,27.4673798 C56.8862051,27.4673798 57.3850049,26.8422857 57.3850049,25.9803217 C57.3850049,25.3319419 57.0603826,24.5169503 56.2361566,24.5169503 C55.420378,24.5169503 55.0635752,25.2765385 55.0635752,25.9963807 Z M59.1670871,25.1102882 C59.1670871,24.7072088 59.1586395,24.3908475 59.1353088,24.0744862 L59.7531764,24.0744862 L59.793,24.7072088 L59.808688,24.7072088 C59.9989561,24.3511016 60.4426464,23.9953959 61.0766046,23.9953959 C61.6071825,23.9953959 62.4314088,24.3117572 62.4314088,25.6241745 L62.4314088,27.9021358 L61.734296,27.9021358 L61.734296,25.6956368 C61.734296,25.0789734 61.5046069,24.5646856 60.8469154,24.5646856 C60.3951801,24.5646856 60.0383774,24.8890762 59.9120683,25.2764985 C59.8798878,25.3636182 59.8641996,25.4820528 59.8641996,25.600889 L59.8641996,27.9021358 L59.1670871,27.9021358 L59.1670871,25.1102882 Z" id="Shape"></path>
        </g>
        <g id="American_Express-2" transform="translate(375.000000, 1.000000)">
            <g id="American_Express">
                <polyline id="Path" fill="url(#radialGradient-2)" points="43.207574 0 0 0 0 29.9968198 43.207574 29.9968198 43.207574 20.0968198"></polyline>
                <g id="Group" transform="translate(0.000000, 6.600000)" fill="#FFFFFF" fill-rule="nonzero">
                    <path d="M3.94978894,4.00554064 L3.12987871,1.9875053 L2.31450673,4.00554064 L3.94978894,4.00554064 Z M22.0256327,3.20260071 C21.860743,3.30334982 21.6655983,3.30640283 21.4326349,3.30640283 L19.9758571,3.30640283 L19.9758571,2.18289753 L21.4523006,2.18289753 C21.6610601,2.18289753 21.878896,2.19205654 22.0210945,2.27448763 C22.1769076,2.34775972 22.2722109,2.5049894 22.2722109,2.72175265 C22.2722109,2.9415689 22.1799331,3.12016961 22.0256327,3.20260071 Z M32.4136835,4.00554064 L31.5846968,1.9875053 L30.7602483,4.00554064 L32.4136835,4.00554064 Z M13.0474644,6.18996466 L11.8191118,6.18996466 L11.8145736,2.22563958 L10.0764244,6.18996466 L9.02355076,6.18996466 L7.28086334,2.22258657 L7.28086334,6.18996466 L4.84231115,6.18996466 L4.3824353,5.06187986 L1.88639862,5.06187986 L1.42047178,6.18996466 L0.117994461,6.18996466 L2.264586,1.12961131 L4.04509216,1.12961131 L6.08579123,5.91977385 L6.08579123,1.12808481 L8.04177633,1.12808481 L9.61049756,4.56118728 L11.0521478,1.12808481 L13.0474644,1.12808481 L13.0474644,6.18996466 Z M17.9457473,6.18996466 L13.9414994,6.18996466 L13.9414994,1.12961131 L17.9457473,1.12961131 L17.9457473,2.18289753 L15.139597,2.18289753 L15.139597,3.09574558 L17.8776736,3.09574558 L17.8776736,4.13376678 L15.139597,4.13376678 L15.139597,5.14431095 L17.9457473,5.14431095 L17.9457473,6.18996466 Z M23.5928412,2.49125088 C23.5928412,3.29877032 23.0588406,3.7155053 22.748727,3.84067845 C23.0104326,3.94142756 23.2358323,4.12002827 23.3417248,4.26657244 C23.5111527,4.51844523 23.5398949,4.74284099 23.5398949,5.19468551 L23.5398949,6.18843816 L22.3312081,6.18843816 L22.3266699,5.55036042 C22.3266699,5.24506007 22.3554121,4.80848057 22.1375762,4.56424028 C21.9620972,4.38563958 21.6958533,4.34747703 21.263207,4.34747703 L19.9758571,4.34747703 L19.9758571,6.18843816 L18.7777595,6.18843816 L18.7777595,1.12808481 L21.5355019,1.12808481 C22.1481654,1.12808481 22.5989648,1.14487633 22.9877414,1.37079859 C23.3659288,1.59672085 23.5928412,1.92644523 23.5928412,2.49125088 Z M25.5110075,6.18996466 L24.2871932,6.18996466 L24.2871932,1.12961131 L25.5110075,1.12961131 L25.5110075,6.18996466 Z M39.7021106,6.18996466 L38.0032929,6.18996466 L35.7311432,2.39202827 L35.7311432,6.18996466 L33.2895655,6.18996466 L32.8236386,5.06187986 L30.3336529,5.06187986 L29.8813408,6.18996466 L28.4790221,6.18996466 C27.8966135,6.18996466 27.1583917,6.06021201 26.7408729,5.62973852 C26.3188158,5.19926502 26.1009798,4.61766784 26.1009798,3.69718728 C26.1009798,2.94614841 26.2325891,2.26074912 26.7469239,1.71884099 C27.1341878,1.31431802 27.7408003,1.12808481 28.5667615,1.12808481 L29.7270404,1.12808481 L29.7270404,2.21190106 L28.5909655,2.21190106 C28.1537809,2.21190106 27.9072028,2.27754064 27.6681883,2.51109541 C27.4639671,2.72480565 27.3232814,3.12627562 27.3232814,3.65749823 C27.3232814,4.19940636 27.4306867,4.59019081 27.6530608,4.84664311 C27.8376163,5.04661484 28.1734467,5.10767491 28.4880986,5.10767491 L29.0266374,5.10767491 L30.7163786,1.12808481 L32.5120122,1.12808481 L34.5421221,5.91519435 L34.5421221,1.12808481 L36.3680107,1.12808481 L38.4752707,4.65277739 L38.4752707,1.12808481 L39.7036233,1.12808481 L39.7036233,6.18996466 L39.7021106,6.18996466 Z M0.104379715,7.18371731 L2.15264254,7.18371731 L2.61403113,6.06021201 L3.64723904,6.06021201 L4.10711489,7.18371731 L8.13707955,7.18371731 L8.13707955,6.32429682 L8.49711393,7.18677032 L10.5892465,7.18677032 L10.9492809,6.3105583 L10.9492809,7.18219081 L20.9651953,7.18219081 L20.9606571,5.33665018 L21.154289,5.33665018 C21.2904364,5.34122968 21.3297679,5.3534417 21.3297679,5.58089046 L21.3297679,7.18219081 L26.5094222,7.18219081 L26.5094222,6.75324382 C26.9269411,6.97916608 27.5774234,7.18219081 28.4321268,7.18219081 L30.6119989,7.18219081 L31.0779257,6.05868551 L32.1111336,6.05868551 L32.567984,7.18219081 L36.7673766,7.18219081 L36.7673766,6.11363958 L37.4027314,7.18219081 L40.768599,7.18219081 L40.768599,0.123646643 L37.4405501,0.123646643 L37.4405501,0.957116608 L36.9746232,0.123646643 L33.5573221,0.123646643 L33.5573221,0.957116608 L33.129214,0.123646643 L28.5138153,0.123646643 C27.7408003,0.123646643 27.0615758,0.232028269 26.5139605,0.53580212 L26.5139605,0.123646643 L23.32811,0.123646643 L23.32811,0.53580212 C22.9786649,0.222869258 22.5036615,0.123646643 21.9741992,0.123646643 L10.3366173,0.123646643 L9.55603858,1.94628975 L8.75428135,0.123646643 L5.08888931,0.123646643 L5.08888931,0.957116608 L4.68649795,0.123646643 L1.55964473,0.123646643 L0.107405214,3.47889753 L0.104379715,7.18371731 Z" id="Shape"></path>
                    <path d="M42.7563518,10.9160141 L40.5719416,10.9160141 C40.3541056,10.9160141 40.2088817,10.9236466 40.086349,11.0076042 C39.959278,11.0900353 39.91087,11.210629 39.91087,11.3724382 C39.91087,11.5632509 40.0182752,11.6930035 40.1725757,11.7494841 C40.2996466,11.7937527 40.4342813,11.8074912 40.6339643,11.8074912 L41.2829338,11.8258092 C41.9379544,11.8426007 42.3766517,11.9555618 42.6428956,12.2333852 C42.6913036,12.2715477 42.7200458,12.3158163 42.7548391,12.3585583 L42.7563518,10.9160141 Z M42.7563518,14.2544735 C42.4659039,14.6834205 41.8971101,14.9017102 41.1301461,14.9017102 L38.8156394,14.9017102 L38.8156394,13.8163675 L41.1210696,13.8163675 C41.3494948,13.8163675 41.5098462,13.7858375 41.6066622,13.6911943 C41.6898634,13.6133428 41.7488607,13.4988551 41.7488607,13.36147 C41.7488607,13.2133993 41.6898634,13.0973852 41.602124,13.0271661 C41.5158972,12.9493145 41.3888263,12.9142049 41.1800669,12.9142049 C40.0545812,12.8760424 38.6507497,12.9493145 38.6507497,11.3480141 C38.6507497,10.6137668 39.1121383,9.84135689 40.3707459,9.84135689 L42.7593773,9.84135689 L42.7593773,8.83386572 L40.5401738,8.83386572 C39.8700258,8.83386572 39.3844332,8.99567491 39.0395263,9.2475477 L39.0395263,8.83386572 L35.7583726,8.83386572 C35.2334486,8.83386572 34.6177595,8.96514488 34.3257989,9.2475477 L34.3257989,8.83386572 L28.4654073,8.83386572 L28.4654073,9.2475477 C27.9994805,8.90866431 27.211338,8.83386572 26.8482781,8.83386572 L22.9832031,8.83386572 L22.9832031,9.2475477 C22.6140923,8.88729329 21.794182,8.83386572 21.2934619,8.83386572 L16.9669984,8.83386572 L15.9776602,9.91462898 L15.0503448,8.83386572 L8.5878789,8.83386572 L8.5878789,15.8969894 L14.9278121,15.8969894 L15.9474052,14.7994346 L16.9080011,15.8969894 L20.8169459,15.9000424 L20.8169459,14.2392085 L21.2011842,14.2392085 C21.7200573,14.246841 22.3312081,14.22547 22.8712597,13.9903887 L22.8712597,15.8969894 L26.0949289,15.8969894 L26.0949289,14.0560283 L26.250742,14.0560283 C26.4489122,14.0560283 26.468578,14.0636608 26.468578,14.265159 L26.468578,15.8969894 L36.2621182,15.8969894 C36.8838583,15.8969894 37.5343406,15.7367067 37.8943749,15.4451449 L37.8943749,15.8969894 L41.0000497,15.8969894 C41.6459937,15.8969894 42.278323,15.8053993 42.7578646,15.5718445 L42.7578646,14.2544735 L42.7563518,14.2544735 Z M37.9745507,12.2318587 C38.2075141,12.4760989 38.3330723,12.7829258 38.3330723,13.3049894 C38.3330723,14.3933852 37.658386,14.9017102 36.4496992,14.9017102 L34.1155267,14.9017102 L34.1155267,13.8163675 L36.4406227,13.8163675 C36.6675351,13.8163675 36.8293993,13.7858375 36.9307535,13.6911943 C37.012442,13.6133428 37.072952,13.4988551 37.072952,13.36147 C37.072952,13.2133993 37.0094165,13.0973852 36.9262153,13.0271661 C36.8339375,12.9493145 36.7083793,12.9142049 36.4996199,12.9142049 C35.3786725,12.8760424 33.974841,12.9493145 33.974841,11.3480141 C33.974841,10.6137668 34.4316913,9.84135689 35.6887862,9.84135689 L38.0925451,9.84135689 L38.0925451,10.9190671 L35.8930074,10.9190671 C35.6751714,10.9190671 35.532973,10.9266996 35.411953,11.0106572 C35.2803438,11.0930883 35.2319358,11.213682 35.2319358,11.3754912 C35.2319358,11.5663039 35.3438793,11.6960565 35.4936415,11.7525371 C35.6207124,11.7968057 35.7553471,11.8105442 35.9595683,11.8105442 L36.6055124,11.8288622 C37.2559947,11.8410742 37.7022558,11.9540353 37.9745507,12.2318587 Z M27.156879,11.9189258 C26.9965276,12.0150954 26.7983574,12.0227279 26.5653939,12.0227279 L25.1086162,12.0227279 L25.1086162,10.8854841 L26.5850597,10.8854841 C26.7983574,10.8854841 27.011655,10.8900636 27.156879,10.9770742 C27.3126922,11.0595053 27.4049699,11.2152085 27.4049699,11.4319717 C27.4049699,11.6502615 27.3111794,11.8242827 27.156879,11.9189258 Z M27.8799733,12.549371 C28.1462172,12.6485936 28.3655658,12.8271943 28.4669201,12.9737385 C28.636348,13.2210318 28.660552,13.4515336 28.6650902,13.8972721 L28.6650902,14.9001837 L27.4624544,14.9001837 L27.4624544,14.2666855 C27.4624544,13.9629117 27.4911966,13.5110671 27.2688225,13.2759859 C27.0933435,13.0943322 26.8270996,13.0515901 26.389915,13.0515901 L25.1086162,13.0515901 L25.1086162,14.9001837 L23.9044676,14.9001837 L23.9044676,9.83830389 L26.6727992,9.83830389 C27.2794117,9.83830389 27.7211346,9.86578092 28.1159622,10.0779647 C28.4941496,10.3084664 28.7316512,10.6244523 28.7316512,11.20147 C28.7301385,12.0105159 28.1961379,12.4226714 27.8799733,12.549371 Z M29.3942355,9.83983039 L33.3954579,9.83983039 L33.3954579,10.8870106 L30.5877949,10.8870106 L30.5877949,11.8074912 L33.3258715,11.8074912 L33.3258715,12.8409329 L30.5877949,12.8409329 L30.5877949,13.848424 L33.3954579,13.8530035 L33.3954579,14.9032367 L29.3942355,14.9032367 L29.3942355,9.83983039 Z M21.3070767,12.1753781 L19.7580212,12.1753781 L19.7580212,10.8870106 L21.3206914,10.8870106 C21.7533378,10.8870106 22.0543749,11.0656113 22.0543749,11.5082968 C22.0543749,11.9448763 21.7669525,12.1753781 21.3070767,12.1753781 Z M18.5629491,14.4407067 L16.721933,12.3784028 L18.5629491,10.3817385 L18.5629491,14.4407067 Z M13.8098902,13.8468975 L10.8630541,13.8468975 L10.8630541,12.8394064 L13.4952383,12.8394064 L13.4952383,11.8059647 L10.8630541,11.8059647 L10.8630541,10.8854841 L13.8688874,10.8854841 L15.1804412,12.3600848 L13.8098902,13.8468975 Z M23.340212,11.5067703 C23.340212,12.9126784 22.3009531,13.2027138 21.2526177,13.2027138 L19.7565085,13.2027138 L19.7565085,14.9001837 L17.4268742,14.9001837 L15.9504307,13.2240848 L14.4165027,14.9001837 L9.66798205,14.9001837 L9.66798205,9.83830389 L14.4891147,9.83830389 L15.9640455,11.4976113 L17.488897,9.83830389 L21.3191787,9.83830389 C22.2722109,9.83983039 23.340212,10.1054417 23.340212,11.5067703 Z" id="Shape"></path>
                </g>
            </g>
        </g>
        <g id="Troy-Logo" transform="translate(439.000000, 6.000000)">
            <g id="Group" transform="translate(1.437077, 22.724340)" fill="#323E48">
                <path d="M0.839891746,0.695190616 L0.352882273,0.695190616 C0.315358593,0.695190616 0.289012179,0.714985337 0.277834912,0.759325513 L0.248294993,0.88601173 L0.0710554804,0.88601173 L0.118159675,0.683313783 C0.142909337,0.564545455 0.190013532,0.529706745 0.311366712,0.529706745 L1.6358728,0.529706745 C1.75483085,0.529706745 1.7867659,0.564545455 1.75962111,0.683313783 L1.71331529,0.88601173 L1.53128552,0.88601173 L1.56242219,0.759325513 C1.57200271,0.715777126 1.55603518,0.695190616 1.51451962,0.695190616 L1.03309878,0.695190616 L0.637902571,2.46642229 L0.442300406,2.46642229 L0.839891746,0.695190616 Z" id="Path"></path>
                <path d="M1.75882273,1.29853372 C1.77079838,1.26052786 1.74924222,1.23835777 1.71251691,1.23835777 L1.59355886,1.23835777 L1.6326793,1.07920821 L1.82987821,1.07920821 C1.94883627,1.07920821 1.98715832,1.12829912 1.96480379,1.23835777 L1.81550744,1.91375367 C1.76281461,2.12991202 1.75962111,2.32390029 2.02867388,2.32390029 C2.3432341,2.32390029 2.60510149,2.0459824 2.67216509,1.74272727 L2.82066306,1.08 L3.00907984,1.08 L2.74721245,2.24313783 C2.74162382,2.28193548 2.75759134,2.30331378 2.7959134,2.30331378 L2.9132747,2.30331378 L2.87734777,2.46642229 L2.68573748,2.46642229 C2.56917456,2.46642229 2.52845737,2.41495601 2.55001353,2.31281525 L2.5643843,2.24868035 C2.57635995,2.19167155 2.58913396,2.14812317 2.58913396,2.14812317 L2.58434371,2.14812317 C2.49811908,2.28193548 2.26898512,2.49967742 1.96400541,2.49967742 C1.63188092,2.49967742 1.53048714,2.32390029 1.61192152,1.96363636 L1.75882273,1.29853372 Z M2.22826793,0.528914956 L2.39193505,0.528914956 L2.33844384,0.764868035 L2.17477673,0.764868035 L2.22826793,0.528914956 Z M2.64581867,0.528914956 L2.81188092,0.528914956 L2.75519621,0.764868035 L2.59152909,0.764868035 L2.64581867,0.528914956 Z" id="Shape" fill-rule="nonzero"></path>
                <path d="M3.42822733,1.29853372 C3.44020298,1.26052786 3.4226387,1.23835777 3.38112314,1.23835777 L3.26695535,1.23835777 L3.3020839,1.07920821 L3.49688769,1.07920821 C3.61345061,1.07920821 3.65656292,1.12671554 3.63181326,1.23281525 L3.61185386,1.33020528 C3.59828146,1.38879765 3.58311231,1.43630499 3.58311231,1.43630499 L3.58630582,1.43630499 C3.70127199,1.22648094 3.8920839,1.06495601 4.11083897,1.06495601 C4.1499594,1.06495601 4.18668471,1.07445748 4.18668471,1.07445748 L4.14437077,1.2573607 C4.14437077,1.2573607 4.11083897,1.25340176 4.07571042,1.25340176 C3.87930988,1.25340176 3.69568336,1.4070088 3.58870095,1.60812317 C3.54079838,1.69917889 3.51046008,1.79260997 3.4897023,1.88049853 L3.36036536,2.46642229 L3.17035183,2.46642229 L3.42822733,1.29853372 Z" id="Path"></path>
                <path d="M4.50763194,0.750615836 C4.5156157,0.710234604 4.50044655,0.688064516 4.45972936,0.688064516 L4.34476319,0.688064516 L4.37829499,0.528914956 L4.57868742,0.528914956 C4.69604871,0.528914956 4.73756428,0.569296188 4.71121786,0.686480938 L4.50443843,1.60653959 L4.64814614,1.60653959 C4.70163735,1.60653959 4.77269283,1.58991202 4.82219215,1.54082111 L5.28525034,1.08 L5.51677943,1.08 L4.99943166,1.58674487 C4.91001353,1.67225806 4.87328823,1.68730205 4.87328823,1.68730205 L4.87328823,1.68888563 C4.87328823,1.68888563 4.90841678,1.71026393 4.93556157,1.79260997 L5.08485792,2.24313783 C5.10242219,2.28668622 5.12477673,2.30331378 5.19982409,2.30331378 L5.27726658,2.30331378 L5.24054127,2.46642229 L5.10801083,2.46642229 C4.96989175,2.46642229 4.93715832,2.44266862 4.89883627,2.32944282 L4.73197564,1.83140762 C4.71361299,1.7759824 4.64495264,1.77123167 4.59625169,1.77123167 L4.46930988,1.77123167 L4.31362652,2.46642229 L4.12520974,2.46642229 L4.50763194,0.750615836 Z" id="Path"></path>
                <path d="M6.0889536,1.29853372 C6.10953364,1.26052786 6.06650264,1.23835777 5.98044065,1.23835777 L5.70354555,1.23835777 L5.79147845,1.07920821 L6.2498521,1.07920821 C6.53235994,1.07920821 6.62403467,1.12829912 6.56229455,1.24785924 L6.04405169,2.24313783 C6.015988,2.28193548 6.06276082,2.30331378 6.14882281,2.30331378 L6.42758882,2.30331378 L6.34152683,2.46642229 L5.87941136,2.46642229 C5.59877443,2.46642229 5.50335787,2.41495601 5.56883982,2.29777126 L6.0889536,1.29853372 Z M6.4818453,0.528914956 L6.91028434,0.528914956 L6.78306227,0.764868035 L6.36023596,0.764868035 L6.4818453,0.528914956 Z" id="Shape" fill-rule="nonzero"></path>
                <path d="M6.16106901,2.87815249 C6.28322057,2.87815249 6.39020298,2.77521994 6.4700406,2.64932551 L6.59778078,2.45929619 L6.36225981,1.30486804 C6.35188092,1.25577713 6.33112314,1.23914956 6.27843031,1.23914956 L6.25368065,1.23914956 L6.29040595,1.08 L6.37583221,1.08 C6.49958051,1.08 6.53151556,1.10692082 6.55626522,1.22806452 L6.71913396,2.09507331 C6.73350474,2.16475073 6.73669824,2.24709677 6.73669824,2.24709677 L6.7414885,2.24709677 C6.7414885,2.24709677 6.77981055,2.16475073 6.82212449,2.09507331 L7.36182679,1.22806452 C7.43687415,1.10692082 7.48477673,1.08 7.61171854,1.08 L7.69874154,1.08 L7.66361299,1.23914956 L7.6332747,1.23914956 C7.58537212,1.23914956 7.55423545,1.25577713 7.52070365,1.30486804 L6.5937889,2.75542522 C6.48281461,2.93278592 6.31355886,3.04442815 6.12993234,3.04442815 C5.9335318,3.04442815 5.85449256,2.91140762 5.85449256,2.91140762 L5.97744249,2.77205279 C5.97664411,2.77363636 6.04290934,2.87815249 6.16106901,2.87815249" id="Path"></path>
                <path d="M8.5258022,1.0443695 C8.91971066,1.0443695 9.05290858,1.34049853 8.9781878,1.68651026 C8.97006597,1.71739003 8.95057359,1.77994135 8.95057359,1.77994135 L7.85575172,1.77994135 C7.78346748,2.12912023 7.99057399,2.33102639 8.28539621,2.33102639 C8.54529458,2.33102639 8.75158891,2.15920821 8.75158891,2.15920821 L8.81087822,2.29856305 C8.81087822,2.29856305 8.56235041,2.49967742 8.2350409,2.49967742 C7.81433041,2.49967742 7.56011732,2.19958944 7.65757921,1.77360704 C7.76235074,1.31516129 8.14163992,1.0443695 8.5258022,1.0443695 Z M8.79219803,1.63187683 C8.84336552,1.34524927 8.6963605,1.20351906 8.48519308,1.20351906 C8.25209673,1.20351906 8.01250292,1.35158358 7.90204611,1.63187683 L8.79219803,1.63187683 Z" id="Shape" fill-rule="nonzero"></path>
                <polygon id="Path" points="9.51584574 0.499618768 9.71304465 0.499618768 9.45117727 0.973108504 9.30188092 0.973108504"></polygon>
                <path d="M9.93020298,1.29853372 C9.94138024,1.26052786 9.92142084,1.23835777 9.88549391,1.23835777 L9.76733424,1.23835777 L9.80326116,1.07920821 L9.99886333,1.07920821 C10.1154263,1.07920821 10.1585386,1.12909091 10.1329905,1.23123167 L10.1202165,1.29536657 C10.1058457,1.35158358 10.0930717,1.39592375 10.0930717,1.39592375 L10.0994587,1.39592375 C10.1769012,1.26607038 10.4036401,1.0443695 10.7301759,1.0443695 C11.0806631,1.0443695 11.1589039,1.23835777 11.0830582,1.5843695 L10.9353586,2.24313783 C10.9241813,2.28193548 10.9433424,2.30331378 10.9840595,2.30331378 L11.0998241,2.30331378 L11.0646955,2.46642229 L10.8643031,2.46642229 C10.7477402,2.46642229 10.7078214,2.41495601 10.732571,2.29777126 L10.8818674,1.63346041 C10.9313667,1.41255132 10.9401488,1.22331378 10.6702977,1.22331378 C10.4299865,1.22331378 10.1864817,1.38404692 10.0731123,1.60970674 C10.0435724,1.67146628 10.023613,1.73560117 10.0092422,1.79973607 L9.86154263,2.4656305 L9.67152909,2.4656305 L9.93020298,1.29853372 Z" id="Path"></path>
                <path d="M11.9329689,1.29853372 C11.9516857,1.26052786 11.9179955,1.23835777 11.8187965,1.23835777 L11.5455316,1.23835777 L11.6316288,1.07920821 L12.0939332,1.07920821 C12.3746848,1.07920821 12.460782,1.12829912 12.40276,1.24785924 L11.8805619,2.24313783 C11.8655885,2.28193548 11.8992787,2.30331378 11.9947342,2.30331378 L12.2698708,2.30331378 L12.1856454,2.46642229 L11.7214693,2.46642229 C11.438846,2.46642229 11.3471338,2.41495601 11.4145142,2.29777126 L11.9329689,1.29853372 Z M12.3297645,0.528914956 L12.7546353,0.528914956 L12.6329763,0.764868035 L12.1987471,0.764868035 L12.3297645,0.528914956 Z" id="Shape" fill-rule="nonzero"></path>
                <path d="M12.2941949,1.29853372 C12.3021786,1.26052786 12.2862111,1.23835777 12.2430988,1.23835777 L12.1297294,1.23835777 L12.1632612,1.07920821 L12.3620568,1.07920821 C12.477023,1.07920821 12.5185386,1.12909091 12.4953857,1.23123167 L12.4810149,1.29536657 C12.4690392,1.35158358 12.4538701,1.39592375 12.4538701,1.39592375 L12.4602571,1.39592375 C12.538498,1.26607038 12.7684303,1.0443695 13.0949662,1.0443695 C13.4414614,1.0443695 13.5205007,1.23835777 13.4446549,1.5843695 L13.2969553,2.24313783 C13.2889716,2.28193548 13.3049391,2.30331378 13.3440595,2.30331378 L13.4630176,2.30331378 L13.4246955,2.46642229 L13.2266982,2.46642229 C13.1069418,2.46642229 13.0702165,2.41495601 13.0957645,2.29777126 L13.2434641,1.63346041 C13.2921651,1.41255132 13.302544,1.22331378 13.0318945,1.22331378 C12.7923816,1.22331378 12.5504736,1.38404692 12.4355074,1.60970674 C12.4067659,1.67146628 12.3868065,1.73560117 12.3724357,1.79973607 L12.222341,2.4656305 L12.0339242,2.4656305 L12.2941949,1.29853372 Z" id="Path"></path>
                <path d="M15.7535589,0.49170088 C16.3092287,0.49170088 16.6541272,0.927184751 16.5303789,1.48302053 C16.4018403,2.05231672 15.8589445,2.49888563 15.3072666,2.49888563 C14.7507984,2.49888563 14.4122869,2.05231672 14.5400271,1.48302053 C14.6637754,0.927184751 15.2002842,0.49170088 15.7535589,0.49170088 Z M15.3495805,2.3159824 C15.7846955,2.3159824 16.2230041,1.95175953 16.3275913,1.48302053 C16.4289851,1.02615836 16.1511502,0.672228739 15.7128417,0.672228739 C15.2737348,0.672228739 14.8418133,1.02536657 14.7404195,1.48302053 C14.6366306,1.95175953 14.9080785,2.3159824 15.3495805,2.3159824 Z M15.5539648,0.0625513196 L15.7176319,0.0625513196 L15.6641407,0.300087977 L15.501272,0.300087977 L15.5539648,0.0625513196 Z M15.9715156,0.0625513196 L16.1351827,0.0625513196 L16.0824899,0.300087977 L15.9204195,0.300087977 L15.9715156,0.0625513196 Z" id="Shape" fill-rule="nonzero"></path>
                <path d="M17.477253,1.0443695 C17.8157645,1.0443695 17.8756428,1.30407625 17.8756428,1.30407625 L17.8812314,1.30407625 C17.8812314,1.30407625 17.88682,1.25656891 17.8979973,1.19956012 L17.9977943,0.749824047 C18.0081732,0.709442815 17.9898106,0.687272727 17.9506901,0.687272727 L17.8333288,0.687272727 L17.8708525,0.528123167 L18.0656563,0.528123167 C18.1878078,0.528123167 18.2269283,0.574046921 18.1989851,0.695190616 L17.8564817,2.24313783 C17.8445061,2.2811437 17.8628687,2.30331378 17.9035859,2.30331378 L18.0193505,2.30331378 L17.9842219,2.46642229 L17.7894181,2.46642229 C17.6728552,2.46642229 17.6337348,2.41337243 17.6568877,2.31281525 C17.6688633,2.2597654 17.6816373,2.22492669 17.6816373,2.22492669 L17.6768471,2.22492669 C17.6768471,2.22492669 17.4988092,2.49967742 17.1331529,2.49967742 C16.7579161,2.49967742 16.587862,2.19958944 16.687659,1.77123167 C16.7850609,1.33178886 17.1084032,1.0443695 17.477253,1.0443695 M17.7758457,1.77123167 C17.8389175,1.48935484 17.7574831,1.21381232 17.4541001,1.21381232 C17.209797,1.21381232 16.9591069,1.42205279 16.880866,1.77123167 C16.8050203,2.11170088 16.9351556,2.33102639 17.1978214,2.33102639 C17.432544,2.33102639 17.6896211,2.16395894 17.7758457,1.77123167" id="Shape" fill-rule="nonzero"></path>
                <path d="M19.1674385,1.0443695 C19.5606741,1.0443695 19.6985093,1.34049853 19.6198622,1.68651026 C19.6109434,1.71739003 19.5914843,1.77994135 19.5914843,1.77994135 L18.5001541,1.77994135 C18.4279933,2.12912023 18.6339353,2.33102639 18.9266323,2.33102639 C19.1893299,2.33102639 19.3912179,2.15920821 19.3912179,2.15920821 L19.45446,2.29856305 C19.45446,2.29856305 19.2023027,2.49967742 18.8787954,2.49967742 C18.4596143,2.49967742 18.2025923,2.19958944 18.3006985,1.77360704 C18.4044803,1.31516129 18.7879864,1.0443695 19.1674385,1.0443695 Z M19.4341901,1.63187683 C19.4885133,1.34524927 19.3385163,1.20351906 19.1309527,1.20351906 C18.8982545,1.20351906 18.6558268,1.35158358 18.5455586,1.63187683 L19.4341901,1.63187683 Z" id="Shape" fill-rule="nonzero"></path>
                <path d="M20.0496211,1.29853372 C20.0584032,1.26052786 20.0432341,1.23835777 20.0009202,1.23835777 L19.8867524,1.23835777 L19.9210825,1.07920821 L20.1142896,1.07920821 C20.234046,1.07920821 20.2739648,1.12909091 20.2524087,1.23123167 L20.2356428,1.29536657 C20.2260622,1.35158358 20.2076996,1.39592375 20.2076996,1.39592375 L20.2132882,1.39592375 C20.3250609,1.20747801 20.5805413,1.0443695 20.8008931,1.0443695 C21.0587686,1.0443695 21.1641543,1.16313783 21.1545737,1.39196481 L21.1617591,1.39196481 C21.2791204,1.20668622 21.5170365,1.0443695 21.7533559,1.0443695 C22.0942625,1.0443695 22.1733018,1.23835777 22.0982544,1.5843695 L21.9529499,2.24313783 C21.9417727,2.28193548 21.9593369,2.30331378 22.0000541,2.30331378 L22.1166171,2.30331378 L22.0814885,2.46642229 L21.8818945,2.46642229 C21.7613396,2.46642229 21.7222192,2.41495601 21.749364,2.29777126 L21.9002571,1.63187683 C21.9529499,1.40542522 21.9457645,1.21539589 21.6886874,1.21539589 C21.475521,1.21539589 21.2607578,1.40542522 21.159364,1.60653959 C21.1234371,1.67067449 21.1058728,1.73639296 21.0899053,1.80844575 L20.9422057,2.46721408 L20.7529905,2.46721408 L20.9390122,1.63266862 C20.9845196,1.42205279 21.0012855,1.21618768 20.7362246,1.21618768 C20.5102842,1.21618768 20.2963194,1.4141349 20.1917321,1.62554252 C20.1605954,1.6841349 20.1398376,1.74826979 20.1262652,1.80844575 L19.9801624,2.46721408 L19.7901488,2.46721408 L20.0496211,1.29853372 Z" id="Path"></path>
                <path d="M23.2592976,1.0443695 C23.6516932,1.0443695 23.7881786,1.34049853 23.7093745,1.68651026 C23.7012504,1.71739003 23.6841897,1.77994135 23.6841897,1.77994135 L22.5882444,1.77994135 C22.5159396,2.12912023 22.7222925,2.33102639 23.0163861,2.33102639 C23.2796079,2.33102639 23.4827112,2.15920821 23.4827112,2.15920821 L23.5444546,2.29856305 C23.5444546,2.29856305 23.2942314,2.49967742 22.970891,2.49967742 C22.5476237,2.49967742 22.2917136,2.19958944 22.390828,1.77360704 C22.493192,1.31516129 22.8758386,1.0443695 23.2592976,1.0443695 Z M23.5241443,1.63187683 C23.5793884,1.34524927 23.4307168,1.20351906 23.2203018,1.20351906 C22.9838896,1.20351906 22.7442277,1.35158358 22.6321147,1.63187683 L23.5241443,1.63187683 Z" id="Shape" fill-rule="nonzero"></path>
                <path d="M25.1967524,1.62237537 L24.8646279,0.768035191 C24.8398782,0.709442815 24.8087415,0.694398827 24.7496617,0.694398827 L24.7025575,0.694398827 L24.7424763,0.527331378 L24.8175237,0.527331378 C24.9508525,0.527331378 24.9955616,0.543958944 25.0490528,0.679354839 L25.2606225,1.22648094 C25.2949526,1.33020528 25.3300812,1.44580645 25.3300812,1.44580645 L25.3348714,1.44580645 C25.3348714,1.44580645 25.4187009,1.33020528 25.5017321,1.22648094 L25.9568065,0.679354839 C26.0693775,0.543958944 26.1244655,0.527331378 26.2585927,0.527331378 L26.3336401,0.527331378 L26.2929229,0.694398827 L26.2490122,0.694398827 C26.1939242,0.694398827 26.1516103,0.708651026 26.1053045,0.768035191 L25.3883627,1.62237537 L25.1991475,2.4656305 L25.0067388,2.4656305 L25.1967524,1.62237537 Z" id="Path"></path>
                <path d="M26.8861164,1.0443695 C27.2940866,1.0443695 27.555954,1.35554252 27.4649391,1.76331378 C27.3739242,2.18058651 26.9707442,2.49888563 26.5643708,2.49888563 C26.1556022,2.49888563 25.8945332,2.18058651 25.9879432,1.76331378 C26.0789581,1.35554252 26.4805413,1.0443695 26.8861164,1.0443695 Z M26.6002977,2.33102639 C26.898092,2.33102639 27.1966847,2.08794721 27.2701353,1.76331378 C27.3411908,1.45055718 27.1487821,1.21460411 26.8493911,1.21460411 C26.55,1.21460411 26.2546008,1.45055718 26.1843437,1.76331378 C26.1116915,2.08794721 26.301705,2.33102639 26.6002977,2.33102639 Z M26.7160622,0.528914956 L26.8805277,0.528914956 L26.8270365,0.764868035 L26.662571,0.764868035 L26.7160622,0.528914956 Z M27.133613,0.528914956 L27.294885,0.528914956 L27.246184,0.764868035 L27.0769283,0.764868035 L27.133613,0.528914956 Z" id="Shape" fill-rule="nonzero"></path>
                <path d="M27.9080379,1.29853372 C27.91682,1.26052786 27.8984574,1.23835777 27.8617321,1.23835777 L27.7419756,1.23835777 L27.7794993,1.07920821 L27.9758999,1.07920821 C28.0916644,1.07920821 28.1339783,1.12909091 28.1108254,1.23123167 L28.0956563,1.29536657 C28.0828823,1.35158358 28.0669147,1.39592375 28.0669147,1.39592375 L28.0741001,1.39592375 C28.152341,1.26607038 28.3830717,1.0443695 28.7088092,1.0443695 C29.0561028,1.0443695 29.1351421,1.23835777 29.0576996,1.5843695 L28.9084032,2.24313783 C28.9012179,2.28193548 28.9195805,2.30331378 28.9587009,2.30331378 L29.0744655,2.30331378 L29.0377402,2.46642229 L28.842138,2.46642229 C28.7223816,2.46642229 28.6848579,2.41495601 28.7088092,2.29777126 L28.8565088,1.63346041 C28.9052097,1.41255132 28.9179838,1.22331378 28.6449391,1.22331378 C28.4054263,1.22331378 28.165115,1.38404692 28.0493505,1.60970674 C28.0190122,1.67146628 27.9990528,1.73560117 27.9854804,1.79973607 L27.836184,2.4656305 L27.6477673,2.4656305 L27.9080379,1.29853372 Z" id="Path"></path>
                <path d="M29.6181597,1.23281525 L29.4337348,1.23281525 L29.4704601,1.07920821 L29.6564817,1.07920821 L29.7411096,0.695190616 L29.9279296,0.695190616 L29.8409066,1.07920821 L30.1937889,1.07920821 L30.1586604,1.23281525 L29.8081732,1.23281525 L29.6492963,1.94067449 C29.5774425,2.26847507 29.7762382,2.30648094 29.8840189,2.30648094 C29.9207442,2.30648094 29.9470907,2.30252199 29.9470907,2.30252199 L29.909567,2.47038123 C29.909567,2.47038123 29.8744384,2.47434018 29.8265359,2.47434018 C29.6660622,2.47434018 29.3523004,2.4228739 29.4552909,1.96205279 L29.6181597,1.23281525 Z" id="Path"></path>
                <path d="M31.1069402,1.0443695 C31.5000838,1.0443695 31.6386973,1.34049853 31.5600686,1.68651026 C31.5503413,1.71739003 31.5300762,1.77994135 31.5300762,1.77994135 L30.439812,1.77994135 C30.3668575,2.12912023 30.57113,2.33102639 30.8645692,2.33102639 C31.1255841,2.33102639 31.3306672,2.15920821 31.3306672,2.15920821 L31.390652,2.29856305 C31.390652,2.29856305 31.1417962,2.49967742 30.8175541,2.49967742 C30.3976605,2.49967742 30.143941,2.19958944 30.2404031,1.77360704 C30.3465924,1.31516129 30.7243344,1.0443695 31.1069402,1.0443695 Z M31.3728187,1.63187683 C31.4271293,1.34524927 31.2771673,1.20351906 31.0672205,1.20351906 C30.8353874,1.20351906 30.5954482,1.35158358 30.4835847,1.63187683 L31.3728187,1.63187683 Z" id="Shape" fill-rule="nonzero"></path>
                <path d="M31.9901353,1.29853372 C31.995724,1.26052786 31.9789581,1.23835777 31.940636,1.23835777 L31.8248714,1.23835777 L31.86,1.07920821 L32.0540054,1.07920821 C32.1737618,1.07920821 32.214479,1.12909091 32.1921245,1.23123167 L32.1753586,1.29536657 C32.1641813,1.35158358 32.1498106,1.39592375 32.1498106,1.39592375 L32.1553992,1.39592375 C32.2679702,1.20747801 32.5226522,1.0443695 32.7398106,1.0443695 C33.0000812,1.0443695 33.1070636,1.16313783 33.0974831,1.39196481 L33.101475,1.39196481 C33.2196346,1.20668622 33.455954,1.0443695 33.6938701,1.0443695 C34.03318,1.0443695 34.1186062,1.23835777 34.0411637,1.5843695 L33.8918674,2.24313783 C33.8830853,2.28193548 33.9014479,2.30331378 33.93977,2.30331378 L34.0563329,2.30331378 L34.0212043,2.46642229 L33.8200135,2.46642229 C33.7034506,2.46642229 33.6635318,2.41495601 33.6930717,2.29777126 L33.8407713,1.63187683 C33.8926658,1.40542522 33.884682,1.21539589 33.6284032,1.21539589 C33.4168336,1.21539589 33.2004736,1.40542522 33.0990798,1.60653959 C33.0639513,1.67067449 33.046387,1.73639296 33.0296211,1.80844575 L32.8835183,2.46721408 L32.6943031,2.46721408 L32.8803248,1.63266862 C32.927429,1.42205279 32.9425981,1.21618768 32.6775372,1.21618768 C32.45,1.21618768 32.2360352,1.4141349 32.1314479,1.62554252 C32.101908,1.6841349 32.0835453,1.74826979 32.0667794,1.80844575 L31.921475,2.46721408 L31.7330582,2.46721408 L31.9901353,1.29853372 Z" id="Path"></path>
                <path d="M34.8904635,1.29853372 C34.9109669,1.26052786 34.8718241,1.23835777 34.7786269,1.23835777 L34.5027631,1.23835777 L34.5940963,1.07920821 L35.0544907,1.07920821 C35.3303545,1.07920821 35.4254156,1.12829912 35.3508579,1.24785924 L34.8382731,2.24313783 C34.8214976,2.28193548 34.8606404,2.30331378 34.9538377,2.30331378 L35.2203817,2.30331378 L35.1346403,2.46642229 L34.674246,2.46642229 C34.3946543,2.46642229 34.303321,2.41495601 34.3666951,2.29777126 L34.8904635,1.29853372 Z M35.2837558,0.528914956 L35.7087352,0.528914956 L35.5875788,0.764868035 L35.1532797,0.764868035 L35.2837558,0.528914956 Z" id="Shape" fill-rule="nonzero"></path>
            </g>
            <g id="Group">
                <g id="Path">
                    <path d="M54.0468742,4.35008798 C53.2237483,4.35008798 52.316793,4.80219941 51.9575237,5.6201173 L48.1149391,14.3495894 L46.7313532,5.6201173 C46.5700812,4.80219941 46.0112179,4.35008798 45.1258187,4.35008798 L40.2589175,4.35008798 L44.4216509,18.8517009 C44.4966982,19.1304106 44.5126658,19.4384164 44.4567794,19.7630499 C44.237226,20.9729032 43.0731935,21.956305 41.8508796,21.956305 L39.1276184,21.956305 C38.4354263,21.956305 37.9795535,22.3807038 37.7552097,23.3427273 L37.1500406,26.9358651 L41.9490798,26.9358651 C44.4551827,26.9358651 47.3956022,25.6887977 49.3564141,22.2389736 L58.9656698,4.35008798 L54.0468742,4.35008798 Z" fill="#323E48"></path>
                    <path d="M6.80695535,0.022170088 C8.24483085,0.022170088 8.93861976,0.590674487 8.68633288,2.01826979 L8.27037889,4.34533724 L11.5732612,4.34533724 L10.8467388,8.43492669 L7.54385656,8.43492669 L6.6440866,13.5 C6.33112314,15.2617302 8.09313938,15.4984751 9.10308525,15.4984751 C9.30427605,15.4984751 9.47033829,15.4905572 9.59169147,15.4865982 L8.78213802,20.0465103 C8.53464141,20.0718475 8.27516915,20.1066862 7.73227334,20.1066862 C5.22457375,20.1066862 0.483815968,19.4407918 1.41631935,14.1951906 L2.43584574,8.43492669 L0.030338295,8.43492669 L0.75526387,4.34533724 L3.13682003,4.34533724 L3.90565629,0.022170088 L6.80695535,0.022170088 Z" fill="#323E48"></path>
                    <g transform="translate(24.190798, 4.196481)" fill="#00ADBB">
                        <path d="M10.3613261,0.336510264 L9.51265223,5.10545455 C10.5601218,5.6343695 11.2754668,6.71199413 11.2754668,7.95431085 C11.2754668,9.59331378 10.0387821,10.9353959 8.44282815,11.1278006 L7.59654939,15.8959531 C7.74584574,15.9054545 7.89833559,15.9102053 8.05002706,15.9102053 C12.4818133,15.9102053 16.072111,12.3471554 16.072111,7.95351906 C16.072111,4.36038123 13.6666035,1.32387097 10.3613261,0.336510264 Z"></path>
                        <path d="M6.58660352,10.8031672 C5.54152909,10.2766276 4.8237889,9.19662757 4.8237889,7.95351906 C4.8237889,6.32480938 6.06526387,4.97243402 7.65882273,4.78240469 L8.50510149,0.0158357771 C8.35341001,0.00712609971 8.20092016,0 8.04922869,0 C3.62223275,0 0.0295399188,3.56542522 0.0295399188,7.95351906 C0.0295399188,11.5474487 2.43504736,14.5887097 5.74032476,15.5744868 L6.58660352,10.8031672 Z"></path>
                    </g>
                    <path d="M13.4845737,4.35008798 L16.3220027,4.35008798 C17.7598782,4.35008798 18.451272,4.92017595 18.19659,6.34777126 L17.8860217,8.07782991 C18.9422733,5.94950147 21.2352097,4.19489736 23.5896211,4.19489736 C23.8985927,4.19489736 24.1947903,4.25507331 24.1947903,4.25507331 L23.2758593,9.41041056 C23.2758593,9.41041056 22.8646955,9.31539589 22.2220027,9.31539589 C20.9693505,9.31539589 18.8512585,9.70970674 17.6712585,12.0462757 C17.3886333,12.6211144 17.1730717,13.3218475 17.0237754,14.1651026 L15.9954668,19.9578299 L10.7102165,19.9578299 L13.4845737,4.35008798 Z" fill="#323E48"></path>
                </g>
                <path d="M58.9648714,20.6831085 C58.9648714,21.1486804 58.7988092,21.5453666 58.4666847,21.8747507 C58.1369553,22.2017595 57.7377673,22.3656598 57.2675237,22.3656598 C56.7996752,22.3656598 56.4004871,22.2017595 56.0683627,21.8747507 C55.7362382,21.5453666 55.5701759,21.1486804 55.5701759,20.6831085 C55.5701759,20.2191202 55.7362382,19.8232258 56.0683627,19.4938416 C56.4004871,19.1676246 56.7996752,19.0029326 57.2675237,19.0029326 C57.7369689,19.0029326 58.1369553,19.1676246 58.4666847,19.4938416 C58.7988092,19.8232258 58.9648714,20.219912 58.9648714,20.6831085 Z M58.6982138,20.6831085 C58.6982138,20.2864223 58.5576996,19.9491202 58.2774696,19.6704106 C57.9996346,19.3893255 57.6603248,19.2483871 57.2675237,19.2483871 C56.8747226,19.2483871 56.5386062,19.3901173 56.2599729,19.6704106 C55.982138,19.9491202 55.8440189,20.2864223 55.8440189,20.6831085 C55.8440189,21.0821701 55.982138,21.4202639 56.2599729,21.6981818 C56.5378078,21.9784751 56.8747226,22.1202053 57.2675237,22.1202053 C57.6603248,22.1202053 57.9988363,21.9784751 58.2774696,21.6981818 C58.5576996,21.4210557 58.6982138,21.0821701 58.6982138,20.6831085 Z M57.9804736,21.6039589 L57.6786874,21.6039589 L57.2531529,20.8525513 L56.9729229,20.8525513 L56.9729229,21.6039589 L56.7158457,21.6039589 L56.7158457,19.7606745 L57.3473613,19.7606745 C57.5110284,19.7606745 57.6491475,19.8137243 57.7633153,19.9206158 C57.8758863,20.0275073 57.9341678,20.1573607 57.9341678,20.3125513 C57.9341678,20.5698827 57.800839,20.7393255 57.5341813,20.820088 L57.9804736,21.6039589 Z M57.6699053,20.3125513 C57.6699053,20.2191202 57.6371719,20.1431085 57.571705,20.0805572 C57.5062382,20.0180059 57.4224087,19.9871261 57.3194181,19.9871261 L56.9737212,19.9871261 L56.9737212,20.6316422 L57.3194181,20.6316422 C57.4224087,20.6316422 57.5062382,20.602346 57.571705,20.5421701 C57.6371719,20.4812023 57.6699053,20.4051906 57.6699053,20.3125513 Z" id="Shape" fill="#323E48" fill-rule="nonzero"></path>
            </g>
        </g>
    </g>
</svg>